<svg id="Capa_1" enable-background="new 0 0 512 512" height="512" viewBox="0 0 512 512" width="512" xmlns="http://www.w3.org/2000/svg"><g><g><path d="m248.997 117.678 83.091 128.75h-83.091-83.091z" fill="#fff"/><path d="m165.906 246.428-83.091-128.75h83.091 83.091z" fill="#ffee80"/><path d="m332.088 246.428-83.091-128.75h83.091 83.091z" fill="#ff7d97"/><path d="m485.645 240.017c-.003.005-.006.01-.009.014l.012-.012z" fill="#ffee80"/><path d="m12.347 240.019.012.012c-.003-.004-.005-.009-.008-.013z" fill="#ff7d97"/><path d="m473.821 246.428h-58.641-83.091l-.001.002-69.585 228.104c-.516 1.691-1.271 3.165-2.203 4.427l93.754-99.409 61.624-65.341 68.331-72.116-.009-.006c-.561.587-1.17 1.13-1.829 1.616-2.289 1.69-5.139 2.723-8.35 2.723z" fill="#ffee80"/><path d="m235.492 474.533-69.586-228.105h-83.091-58.641c-3.211 0-6.061-1.032-8.35-2.722-.533-.394-1.026-.832-1.495-1.292l-.017.009 223.417 236.573c-.001-.002-.003-.003-.004-.005-.944-1.27-1.712-2.752-2.233-4.458z" fill="#ff7d97"/><path d="m24.174 246.428h58.641 83.091l-83.091-128.75-70.866 107.576c-2.862 4.957-2.329 10.565.402 14.764.003.004.006.009.008.013.563.864 1.23 1.657 1.97 2.382.469.46.962.899 1.495 1.292 2.289 1.69 5.139 2.723 8.35 2.723z" fill="#89df8f"/><path d="m248.997 246.428h-83.091l69.586 228.105c.521 1.706 1.289 3.188 2.232 4.458.001.002.003.003.004.005 5.495 7.387 17.097 7.379 22.571-.035.932-1.262 1.687-2.736 2.203-4.427l69.585-228.104v-.001h-83.09z" fill="#66e0f7"/><path d="m486.046 225.254-70.866-107.576-83.091 128.749h83.091 58.641c3.211 0 6.061-1.032 8.35-2.722.659-.486 1.268-1.029 1.829-1.616.608-.636 1.158-1.323 1.636-2.058.003-.005.006-.01.009-.014 2.73-4.199 3.262-9.807.401-14.763z" fill="#8481e2"/></g><g><path d="m423.546 112.167c-1.678-2.378-4.499-4.503-8.367-4.508h-332.317c-2.595-.009-6.484 1.348-8.414 4.508 0 0-71.079 107.907-71.177 108.077-4.363 7.556-4.363 16.578 0 24.135 1.128 1.954 2.491 3.7 4.037 5.221l222.739 235.856c4.431 5.692 11.23 9.096 18.949 9.096 7.721 0 14.521-3.405 18.952-9.099l93.393-99.026c3.796-4.026 3.61-10.367-.415-14.163-4.024-3.796-10.366-3.611-14.164.414l-63.136 66.945 55.879-183.174h117.1l-48.202 50.872c-3.806 4.016-3.635 10.358.382 14.164 1.937 1.836 4.416 2.746 6.889 2.746 2.655 0 5.305-1.049 7.275-3.128l68.331-72.116c.004-.004 2.464-2.913 3.441-4.606 4.363-7.556 4.363-16.579 0-24.135-.096-.172-71.175-108.079-71.175-108.079zm53.823 122.193c-.441.765-1.49 2.048-3.548 2.048h-123.342l64.786-100.386 62.207 94.43c.884 1.703.323 3.17-.103 3.908zm-145.281-6.41-64.7-100.253h129.401zm-166.182 0-64.7-100.253h129.401zm48.481 211.737-173.05-183.24h117.15zm34.61-303.531 64.7 100.253h-129.4zm-228.475 94.296 62.207-94.43 64.786 100.386h-123.34c-2.059 0-3.107-1.284-3.549-2.049-.426-.737-.987-2.205-.104-3.907zm232.398 241.157c-.153.5-.364.896-.597 1.241-.153.178-.303.357-.441.542-.921.925-2.107 1.121-2.884 1.121-.778 0-1.964-.196-2.885-1.122-.137-.185-.287-.362-.439-.54-.234-.346-.445-.742-.598-1.242l-65.637-215.162h139.118z"/><path d="m15.697 57.933h10.426v10.427c0 5.534 4.486 10.019 10.019 10.019s10.019-4.486 10.019-10.019v-10.427h10.426c5.533 0 10.019-4.486 10.019-10.019s-4.486-10.019-10.019-10.019h-10.425v-10.427c0-5.534-4.486-10.019-10.019-10.019s-10.019 4.486-10.019 10.019v10.427h-10.427c-5.533 0-10.019 4.486-10.019 10.019s4.486 10.019 10.019 10.019z"/><path d="m501.981 79.523h-10.426v-10.427c0-5.534-4.486-10.019-10.019-10.019s-10.019 4.486-10.019 10.019v10.427h-10.427c-5.533 0-10.019 4.486-10.019 10.019 0 5.534 4.486 10.019 10.019 10.019h10.427v10.426c0 5.534 4.486 10.019 10.019 10.019s10.019-4.486 10.019-10.019v-10.426h10.426c5.533 0 10.019-4.486 10.019-10.019s-4.486-10.019-10.019-10.019z"/><circle cx="384.806" cy="346.817" r="10.019"/><circle cx="180.724" cy="55.598" r="10.019"/><circle cx="352.023" cy="36.201" r="10.019"/></g></g></svg>