<svg id="Capa_1" enable-background="new 0 0 512 512" height="380" viewBox="0 0 512 512" width="380" xmlns="http://www.w3.org/2000/svg"><g><g><path d="m387 407.23v76.27l-50-20-50 20v-76.27z" fill="#ff7e98"/><path d="m419.62 358.5h72.38c5.52 0 10-4.48 10-10v-310c0-5.52-4.48-10-10-10h-472c-5.52 0-10 4.48-10 10v310c0 5.52 4.48 10 10 10h80.985 80 73.395z" fill="#9ba7c0"/><path d="m419.62 318.5h42.38v-250h-412v250h204.38z" fill="#fff"/><circle cx="337" cy="338.5" fill="#ffee79" r="85"/><circle cx="337" cy="338.5" fill="#fff6bd" r="45"/><path d="m90 123.5h332v40h-332z" fill="#9eecba"/></g><g><path d="m492 18.5h-472c-11.028 0-20 8.972-20 20v310c0 11.028 8.972 20 20 20h80.984c5.522 0 10-4.477 10-10s-4.478-10-10-10h-80.984v-310h472v310h-60.526c.346-3.287.526-6.623.526-10s-.18-6.713-.526-10h30.526c5.522 0 10-4.477 10-10v-250c0-5.523-4.478-10-10-10h-412c-5.522 0-10 4.477-10 10v250c0 5.523 4.478 10 10 10h192.526c-.345 3.287-.526 6.623-.526 10s.18 6.713.526 10h-61.541c-5.523 0-10 4.477-10 10s4.477 10 10 10h65.873c5.758 17.257 16.341 32.325 30.142 43.597v71.403c0 3.318 1.647 6.42 4.394 8.281 2.748 1.86 6.238 2.238 9.32 1.004l46.286-18.515 46.286 18.514c1.198.479 2.458.715 3.713.715 1.971 0 3.929-.583 5.607-1.719 2.747-1.86 4.394-4.962 4.394-8.281v-71.403c13.801-11.272 24.384-26.34 30.142-43.597h64.858c11.028 0 20-8.972 20-20v-310c0-11.027-8.972-19.999-20-19.999zm-432 290v-230h392v230h-24.858c-12.588-37.727-48.238-65-90.142-65-15.225 0-29.622 3.606-42.391 10h-113.609c-5.523 0-10 4.477-10 10s4.477 10 10 10h86.786c-9.315 9.912-16.53 21.817-20.929 35zm317 160.229-36.286-14.514c-2.385-.954-5.043-.954-7.428 0l-36.286 14.514v-44.074c12.165 5.67 25.717 8.845 40 8.845s27.835-3.174 40-8.845zm-40-55.229c-41.355 0-75-33.645-75-75s33.645-75 75-75 75 33.645 75 75-33.645 75-75 75z"/><path d="m337 283.5c-30.327 0-55 24.673-55 55s24.673 55 55 55 55-24.673 55-55-24.673-55-55-55zm0 90c-19.299 0-35-15.701-35-35s15.701-35 35-35 35 15.701 35 35-15.701 35-35 35z"/><path d="m90 173.5h332c5.522 0 10-4.477 10-10v-40c0-5.523-4.478-10-10-10h-332c-5.522 0-10 4.477-10 10v40c0 5.523 4.478 10 10 10zm10-40h312v20h-312z"/><path d="m422 203.5h-141c-5.522 0-10 4.477-10 10s4.478 10 10 10h141c5.522 0 10-4.477 10-10s-4.478-10-10-10z"/><path d="m241 213.5c0-5.523-4.477-10-10-10h-141c-5.522 0-10 4.477-10 10s4.478 10 10 10h141c5.523 0 10-4.477 10-10z"/><circle cx="140.992" cy="358.499" r="10"/></g></g></svg>