<svg id="Capa_1" enable-background="new 0 0 512.002 512.002" height="512" viewBox="0 0 512.002 512.002" width="512" xmlns="http://www.w3.org/2000/svg"><g><g clip-rule="evenodd" fill-rule="evenodd"><g fill="#ffdcd5"><path d="m61.001 343.16h107.876c-11 0-19.999-9-19.999-20s8.999-20 20-20c-11 0-20-9.001-20-20 0-11 8.999-20 19.999-20h37.124 10c11 0 19.999-9 19.999-20s-8.999-20-20-20h-10c11 0 19.999-9 19.999-20s-9.005-20-19.999-20h-29.28-3.501l-6.037-14.878c-4.135-10.192-16.854-14.035-26.74-9.217l-49.441 24.095h-30z"/><path d="m148.878 284.002c0 10.999 8.999 20 20 20h27.124 10c11 0 19.999-9.001 19.999-20 0-11-8.999-20-19.999-20h-37.124c-11.001.001-20 9-20 20z"/><path d="m168.877 304.003c-11 0-20 8.999-20 19.999s8.999 20 19.999 20h27.125c11 0 19.999-9 19.999-20s-8.999-19.999-19.999-19.999z"/></g><path d="m61.001 343.16v-160h-51.001v160h3.643z" fill="#fff"/><path d="m451.001 343.16h-107.876c11 0 19.999-9 19.999-20s-9-20-20-20c11 0 20-9.001 20-20 0-11-8.999-20-19.999-20h-37.125-10c-11 0-19.999-9-19.999-20s8.999-20 20-20h10c-11 0-20-9-20-20s9.005-20 19.999-20h29.281 3.5l6.037-14.878c4.136-10.192 16.854-14.035 26.74-9.217l49.441 24.095h30v160z" fill="#f3c9a6"/><path d="m363.124 283.16c0 11-9 20-20 20h-27.124-10c-11 0-20-9.001-20-20 0-11 8.999-20 19.999-20h37.125c11.001 0 20 9 20 20z" fill="#f3c9a6"/><path d="m343.125 303.16c11 0 20 8.999 20 20 0 11-8.999 20-19.999 20h-27.126c-11 0-19.999-9-19.999-20s8.999-20 19.999-20z" fill="#f3c9a6"/><path d="m451.001 343.16v-160h51.001v160h-3.643z" fill="#fff"/></g><g><path d="m246.001 244.08c0-10.607-5.532-19.946-13.864-25.282 2.46-4.351 3.864-9.373 3.864-14.718 0-16.542-13.457-30-29.999-30h-26.048l-3.505-8.638c-2.9-7.148-8.592-12.654-16.027-15.503-7.894-3.026-16.773-2.642-24.36 1.057l-47.367 23.084h-78.695c-5.522 0-10 4.478-10 10s4.478 10 10 10h41.001v25c0 5.522 4.478 10 10 10s10-4.478 10-10v-25h20.001c1.519 0 3.017-.346 4.381-1.011l49.44-24.095c2.585-1.261 5.741-1.395 8.442-.359 1.56.598 3.632 1.837 4.65 4.347l14.183 34.952c.996 2.455.969 5.169-.077 7.644s-2.974 4.386-5.429 5.382-5.17.969-7.645-.077c-2.475-1.047-4.386-2.974-5.381-5.428l-3.06-7.541c-2.077-5.117-7.909-7.58-13.026-5.507-5.117 2.076-7.583 7.908-5.507 13.026l3.06 7.541c.831 2.048 1.871 3.974 3.096 5.754-2.792 4.639-4.253 9.892-4.253 15.372 0 9.089 4.062 17.246 10.466 22.752-3.441 4.882-5.466 10.834-5.466 17.248 0 7.677 2.897 14.688 7.657 20-4.76 5.312-7.657 12.323-7.657 20 0 3.505.604 6.871 1.714 10h-69.589v-25c0-5.522-4.478-10-10-10s-10 4.478-10 10v25h-41.001c-5.522 0-10 4.478-10 10s4.478 10 10 10h186.002c16.542 0 29.999-13.458 29.999-30 0-5.345-1.404-10.367-3.864-14.719 8.332-5.335 13.864-14.674 13.864-25.281 0-5.345-1.404-10.367-3.864-14.718 8.332-5.336 13.864-14.675 13.864-25.282zm-39.999-50c5.514 0 9.999 4.486 9.999 10s-4.486 10-10 10h-13.265c.383-4.615-.317-9.282-2.104-13.686l-2.562-6.314zm-10 140h-27.125c-5.514 0-9.999-4.486-9.999-10s4.485-10 9.999-10h27.125c5.514 0 9.999 4.486 9.999 10s-4.485 10-9.999 10zm9.999-40h-37.124c-5.514 0-9.999-4.486-9.999-10s4.485-10 9.999-10h37.125c5.514 0 9.999 4.486 9.999 10s-4.486 10-10 10zm10.001-40h-52.125c-5.514 0-9.999-4.486-9.999-10 0-1.383.279-2.584.674-3.592 6.446 1.872 13.273 1.535 19.561-1.016 3.227-1.31 6.149-3.136 8.678-5.393h33.21c5.514 0 10 4.486 10 10s-4.485 10.001-9.999 10.001z"/><path d="m10.001 239.08c5.522 0 10-4.478 10-10v-.007c0-5.522-4.478-9.997-10-9.997s-10 4.481-10 10.004 4.478 10 10 10z"/><path d="m502.002 334.08h-41.001v-140h41.001c5.522 0 10-4.478 10-10s-4.478-10-10-10h-78.694l-47.367-23.084c-7.584-3.697-16.462-4.081-24.359-1.058-7.435 2.849-13.127 8.354-16.028 15.504l-3.505 8.638h-26.047c-16.542 0-30 13.458-30 30 0 5.345 1.404 10.367 3.864 14.718-8.332 5.336-13.864 14.675-13.864 25.282s5.532 19.946 13.864 25.282c-2.46 4.351-3.864 9.373-3.864 14.718 0 10.607 5.532 19.946 13.864 25.282-2.46 4.351-3.864 9.373-3.864 14.718 0 16.542 13.457 30 29.999 30h186.002c5.522 0 10-4.478 10-10s-4.479-10-10.001-10zm-162.099-126.166 14.183-34.951c1.019-2.511 3.092-3.75 4.651-4.348 2.698-1.035 5.854-.9 8.441.359l49.441 24.095c1.364.665 2.862 1.011 4.381 1.011h20v140h-69.59c1.11-3.129 1.714-6.495 1.714-10 0-7.677-2.897-14.688-7.657-20 4.76-5.312 7.657-12.323 7.657-20 0-6.414-2.024-12.366-5.466-17.248 6.404-5.506 10.466-13.663 10.466-22.752 0-5.481-1.462-10.735-4.254-15.374 1.216-1.764 2.26-3.686 3.099-5.752l3.06-7.541c2.076-5.118-.39-10.95-5.507-13.026-5.115-2.073-10.949.389-13.026 5.507l-3.059 7.541c-2.074 5.108-7.918 7.577-13.027 5.505-2.455-.996-4.383-2.907-5.429-5.382s-1.074-5.189-.078-7.644zm-33.902-13.834h17.932l-2.562 6.314c-1.786 4.403-2.487 9.07-2.104 13.686h-13.265c-5.514 0-10-4.486-10-10s4.485-10 9.999-10zm-20 50c0-5.514 4.486-10 10-10h33.21c2.529 2.256 5.451 4.083 8.678 5.393 6.468 2.624 13.327 2.822 19.563 1.022.394 1.006.671 2.205.671 3.585 0 5.514-4.485 10-9.999 10h-52.124c-5.513 0-9.999-4.487-9.999-10zm10 40c0-5.514 4.486-10 10-10h37.124c5.514 0 9.999 4.486 9.999 10s-4.485 10-9.999 10h-37.124c-5.514 0-10-4.487-10-10zm10 40c0-5.514 4.486-10 10-10h27.124c5.514 0 9.999 4.486 9.999 10s-4.485 10-9.999 10h-27.125c-5.514 0-9.999-4.487-9.999-10z"/><path d="m502.001 219.076c-5.522 0-10 4.481-10 10.004s4.478 10 10 10 10-4.478 10-10v-.007c0-5.523-4.478-9.997-10-9.997z"/><path d="m256.001 89.721c5.522 0 10-4.478 10-10v-33.721c0-5.522-4.478-10-10-10s-10 4.478-10 10v33.721c0 5.523 4.478 10 10 10z"/><path d="m159.201 108.338c1.853 3.208 5.213 5.002 8.67 5.002 1.696 0 3.416-.433 4.99-1.342 4.783-2.762 6.422-8.877 3.66-13.66l-16.86-29.203c-2.761-4.781-8.877-6.421-13.66-3.66-4.783 2.762-6.422 8.877-3.66 13.66z"/><path d="m339.141 111.999c1.575.909 3.294 1.342 4.99 1.342 3.456 0 6.818-1.794 8.67-5.002l16.86-29.203c2.762-4.783 1.123-10.898-3.66-13.66-4.784-2.762-10.899-1.122-13.66 3.66l-16.86 29.203c-2.762 4.783-1.124 10.898 3.66 13.66z"/><path d="m256.001 422.281c-5.522 0-10 4.478-10 10v33.721c0 5.522 4.478 10 10 10s10-4.478 10-10v-33.721c0-5.523-4.478-10-10-10z"/><path d="m172.861 400.003c-4.785-2.761-10.9-1.122-13.66 3.66l-16.86 29.203c-2.762 4.783-1.123 10.898 3.66 13.66 1.575.909 3.294 1.342 4.99 1.342 3.456 0 6.818-1.794 8.67-5.002l16.86-29.203c2.762-4.783 1.124-10.898-3.66-13.66z"/><path d="m352.801 403.664c-2.761-4.782-8.877-6.421-13.66-3.66-4.783 2.762-6.422 8.877-3.66 13.66l16.86 29.203c1.853 3.208 5.213 5.002 8.67 5.002 1.696 0 3.416-.433 4.99-1.342 4.783-2.762 6.422-8.877 3.66-13.66z"/><path d="m61.009 274.08c5.522 0 10-4.478 10-10s-4.478-10-10-10h-.008c-5.522 0-9.996 4.478-9.996 10s4.481 10 10.004 10z"/></g></g></svg>