<svg id="Capa_1" enable-background="new 0 0 512 512" height="360" viewBox="0 0 512 512" width="360" xmlns="http://www.w3.org/2000/svg"><g><g><g><path d="m496.455 437.859h-26.86v64.141h-46.111v-64.141h-26.86l49.916-65.859z" fill="#b8ecbc"/><path d="m115.376 437.859h-26.86v64.141h-46.111v-64.141h-26.86l49.916-65.859z" fill="#b8ecbc"/><path d="m10 186.959c0 19.746 14.128 36.501 33.601 39.836 3.416.586 40.372.667 54.904.586 3.699-.02 7.286-.546 10.682-1.496-.02.536-.03 1.071-.03 1.607v94.032c0 20.009 6.953 48.304 40.099 69.486 14.047 8.974 29.822 13.531 46.93 13.562h.091c14.501 0 28.184-3.193 40.685-9.489 4.083-2.061 7.943-4.325 11.551-6.781v21.929c0 22.293 18.139 40.422 40.422 40.422 22.293 0 40.422-18.129 40.422-40.422v-5.75c40.847-1.93 73.488-35.763 73.488-77.075 0-42.554-34.612-77.166-77.166-77.166-7.296 0-14.481 1.02-21.363 3.001-4.75-1.94-9.954-3.001-15.381-3.001-1.344 0-2.678.071-3.982.202v-23.303c14.946-1.981 27.77-12.208 32.843-26.699l3.638-10.378c5.659 9.378 13.329 17.584 22.647 23.93 3.557 2.425 7.306 4.558 11.167 6.326 10.267 4.76 21.252 7.175 32.641 7.175 12.046 0 23.324-2.718 33.52-8.085 3.406-1.789 6.438-4.002 9.095-6.518 7.418 8.923 18.594 14.603 31.074 14.603 22.293 0 40.422-18.129 40.422-40.422v-111.031c0-22.293-18.129-40.422-40.422-40.422-22.283 0-40.422 18.129-40.422 40.422v6.306c-10.954-6.458-23.708-10.156-37.31-10.156-16.998 0-32.661 5.781-45.142 15.492-4.659-6.377-11.227-11.46-19.231-14.269-4.305-1.506-8.802-2.274-13.349-2.274-9.843 0-19.079 3.578-26.244 9.681-7.145-6.053-16.341-9.6-26.143-9.6-4.487 0-8.913.748-13.137 2.203-7.893 2.708-14.603 7.67-19.423 14.259-12.491-9.711-39.573-15.492-56.581-15.492-40.665 0-73.751 33.106-73.751 73.801 0 .253 0 .505.02.758l-.02-.172v-96.155c0-22.293-18.14-40.422-40.423-40.422-22.293 0-40.422 18.129-40.422 40.422z" fill="#fff7bf"/></g></g><g><path d="m461.578 25.617c-24.736 0-45.37 17.904-49.621 41.435-8.978-3.203-18.489-4.863-28.111-4.863-15.606 0-30.507 4.215-43.597 12.267-5.011-4.622-10.927-8.185-17.475-10.483-5.376-1.881-10.979-2.834-16.65-2.834-9.298 0-18.387 2.586-26.262 7.389-7.844-4.75-16.884-7.308-26.126-7.308-5.584 0-11.101.925-16.382 2.744-6.783 2.327-12.89 5.996-18.018 10.784-16.507-8.622-40.606-12.559-54.741-12.559-25.5 0-48.377 11.465-63.751 29.511v-41.278c.001-27.803-22.619-50.422-50.422-50.422s-50.422 22.619-50.422 50.422v25.188c0 5.522 4.477 10 10 10s10-4.478 10-10v-25.188c0-16.775 13.647-30.422 30.422-30.422s30.423 13.647 30.423 30.422l.091 97.512c.646 5.41 5.494 9.317 10.927 8.766 5.364-.537 9.326-5.226 8.982-10.585v-.124c0-35.18 28.599-63.801 63.751-63.801 15.715 0 40.295 5.498 50.442 13.387 2.133 1.659 4.847 2.38 7.524 2.009 2.677-.375 5.088-1.817 6.684-3.999 3.64-4.975 8.689-8.677 14.61-10.708 3.193-1.101 6.518-1.658 9.88-1.658 7.187 0 14.176 2.567 19.68 7.23 3.737 3.166 9.22 3.16 12.949-.018 5.521-4.704 12.538-7.294 19.759-7.294 3.418 0 6.798.576 10.036 1.709 5.831 2.047 10.835 5.759 14.47 10.733 1.596 2.184 4.008 3.628 6.685 4.004 2.678.373 5.395-.35 7.529-2.011 11.254-8.757 24.74-13.385 39.001-13.385 11.352 0 22.497 3.033 32.231 8.771 3.093 1.824 6.923 1.851 10.039.068 3.116-1.78 5.039-5.094 5.039-8.683v-6.305c0-16.775 13.647-30.423 30.423-30.423s30.423 13.648 30.423 30.423v111.03c0 16.774-13.647 30.422-30.422 30.422-9.053 0-17.576-4.008-23.386-10.995-1.767-2.126-4.335-3.426-7.095-3.59-2.777-.163-5.465.821-7.471 2.722-2.073 1.964-4.385 3.621-6.875 4.93-8.744 4.601-18.455 6.934-28.864 6.934-9.927 0-19.493-2.102-28.476-6.266-3.306-1.515-6.569-3.365-9.702-5.5-8.049-5.482-14.682-12.491-19.715-20.832-2-3.316-5.735-5.171-9.589-4.78-3.853.398-7.129 2.984-8.41 6.64l-3.639 10.381c-3.808 10.877-13.279 18.575-24.719 20.091-4.972.658-8.687 4.898-8.687 9.913v23.304c0 2.827 1.196 5.522 3.294 7.418 2.097 1.895 4.893 2.817 7.712 2.531 5.076-.512 10.014.244 14.574 2.106 2.082.85 4.388.973 6.548.354 6.02-1.732 12.277-2.611 18.598-2.611 37.035 0 67.166 30.131 67.166 67.166 0 35.924-28.094 65.391-63.959 67.085-5.334.252-9.528 4.649-9.528 9.989v5.75c0 16.775-13.647 30.423-30.422 30.423s-30.423-13.647-30.423-30.423v-21.928c0-3.705-2.049-7.106-5.323-8.839s-7.241-1.511-10.303.571c-3.225 2.195-6.735 4.255-10.423 6.117-11.094 5.587-23.269 8.42-36.26 8.42-15.17-.026-29.154-4.061-41.563-11.988-29.327-18.74-35.483-43.549-35.483-61.06v-94.032c0-.408.007-.816.022-1.226.123-3.193-1.289-6.253-3.799-8.232-2.509-1.979-5.813-2.642-8.891-1.778-2.615.732-5.319 1.11-8.04 1.125-18.268.102-49.166-.069-53.33-.472-14.564-2.578-25.117-15.146-25.117-29.951v-21.349c0-5.522-4.477-10-10-10s-10 4.478-10 10v21.349c0 24.635 17.627 45.533 41.91 49.692 5.558.953 56.144.733 56.647.73.2-.001.399-.004.599-.007v84.15c0 22.509 7.758 54.297 44.715 77.913 15.667 10.009 33.263 15.101 52.297 15.135h.108c14.94 0 29.131-3.07 42.235-9.135v4.793c0 27.804 22.619 50.423 50.423 50.423 26.698 0 48.616-20.858 50.315-47.136 41.957-6.529 73.594-42.686 73.594-86.111 0-48.064-39.103-87.166-87.166-87.166-7.065 0-14.075.849-20.887 2.525-3.199-1.054-6.486-1.779-9.839-2.175v-5.468c12.727-4.02 23.288-12.889 29.44-24.782 4.222 4.432 8.917 8.412 14.057 11.913 4.057 2.766 8.308 5.173 12.593 7.136 11.597 5.377 23.993 8.103 36.847 8.103 13.688 0 26.532-3.107 38.172-9.232 1.248-.656 2.47-1.364 3.659-2.124 8.925 7.299 20.122 11.355 31.859 11.355 27.803 0 50.422-22.619 50.422-50.422v-111.029c0-27.804-22.619-50.423-50.422-50.423z"/><circle cx="10" cy="120.61" r="10"/><path d="m234.53 227.493v93.935c0 12.569-6.436 21.664-20.252 28.622-5.398 2.72-11.454 4.098-18.001 4.098-.02 0-.041 0-.061 0-7.319-.011-13.987-1.905-19.819-5.631-11.791-7.534-16.822-15.605-16.822-26.99v-94.033c0-5.522-4.477-10-10-10-5.522 0-10 4.478-10 10v94.033c0 18.301 8.523 32.643 26.055 43.844 9.09 5.809 19.372 8.762 30.56 8.777h.088c9.699 0 18.782-2.098 26.997-6.234 25.833-13.01 31.256-32.46 31.256-46.485v-93.935c0-5.522-4.478-10-10-10-5.523-.001-10.001 4.477-10.001 9.999z"/><path d="m298.938 410.232v-44.525c7.584 5.311 16.803 8.44 26.744 8.44 25.774 0 46.743-20.97 46.743-46.744s-20.969-46.743-46.743-46.743c-9.994 0-19.258 3.163-26.865 8.526-.714-4.822-4.859-8.526-9.879-8.526-5.522 0-10 4.478-10 10v119.572c0 5.523 4.478 10 10 10s10-4.477 10-10zm26.744-109.572c14.746 0 26.743 11.997 26.743 26.743 0 14.747-11.997 26.744-26.743 26.744-14.747 0-26.744-11.997-26.744-26.744 0-14.746 11.997-26.743 26.744-26.743z"/><path d="m50.42 40.417c-5.522 0-10 4.478-10 10v136.539c0 4.871 3.51 9.034 8.312 9.856.712.122 34.105.23 49.597.144 5.523-.031 9.975-4.533 9.944-10.056-.031-5.504-4.502-9.944-9.999-9.944-.019 0-.038 0-.057 0-11.317.062-27.617.127-37.797.114v-126.653c0-5.522-4.478-10-10-10z"/><path d="m279.621 197.071h.03c4.247 0 8.031-2.683 9.438-6.692l26.467-75.51c1.826-5.212-.918-10.918-6.13-12.745-5.213-1.824-10.918.918-12.745 6.13l-16.936 48.319-16.555-48.173c-1.795-5.224-7.486-8.005-12.707-6.207-5.223 1.795-8.002 7.483-6.207 12.707l25.918 75.421c1.384 4.028 5.167 6.738 9.427 6.75z"/><path d="m471.58 187.071v-111.031c0-5.522-4.478-10-10-10-5.523 0-10 4.478-10 10v111.031c0 5.522 4.477 10 10 10s10-4.477 10-10z"/><path d="m168.003 102.61c-25.511-.139-45.63 22.393-43.173 47.71-.002 16.007 8.256 30.753 22.207 39.536 7.682 4.835 16.24 7.282 24.737 7.282 6.664-.001 13.29-1.507 19.419-4.546 4.947-2.454 6.969-8.454 4.516-13.402-2.454-4.946-8.454-6.97-13.402-4.516-7.648 3.794-16.85 3.142-24.614-1.744-4.761-2.997-8.37-7.159-10.542-11.927.001.001 54.171.105 54.176.106 8.169.17 10.991-8.347 10-15.176-.001-23.888-19.435-43.323-43.324-43.323zm-22.789 38.39c2.286-10.502 11.636-18.39 22.789-18.39 11.199 0 20.581 7.936 22.817 18.479z"/><path d="m417.173 161.109c8.716-.31 10.707-7.804 10-15.176 0-23.889-19.436-43.323-43.324-43.323-25.409-.133-45.53 22.231-43.181 47.474-.088 16.094 8.185 30.939 22.205 39.768 7.684 4.838 16.243 7.286 24.739 7.285 6.663 0 13.288-1.506 19.414-4.546 4.947-2.455 6.969-8.455 4.514-13.402-2.454-4.947-8.456-6.967-13.402-4.514-7.648 3.793-16.847 3.139-24.607-1.747-4.761-2.997-8.369-7.159-10.54-11.925.004 0 54.174.106 54.182.106zm-56.113-20.109c2.286-10.502 11.636-18.39 22.789-18.39 11.2 0 20.582 7.936 22.818 18.479z"/><path d="m454.51 365.96c-1.891-2.494-4.84-3.96-7.97-3.96s-6.079 1.466-7.97 3.96l-49.916 65.859c-2.293 3.025-2.675 7.089-.985 10.489 1.688 3.4 5.158 5.551 8.955 5.551h16.859v54.141c0 5.522 4.478 10 10 10h46.112c5.522 0 10-4.478 10-10v-54.141h16.859c3.797 0 7.266-2.15 8.955-5.551 1.689-3.399 1.308-7.464-.985-10.489zm15.086 61.899c-5.522 0-10 4.478-10 10v54.141h-26.112v-54.141c0-5.522-4.478-10-10-10h-6.732l29.789-39.304 29.788 39.304z"/><path d="m73.431 365.96c-1.891-2.494-4.84-3.96-7.97-3.96s-6.079 1.466-7.97 3.96l-49.916 65.859c-2.293 3.025-2.675 7.089-.985 10.489 1.689 3.4 5.158 5.551 8.955 5.551h16.86v54.141c0 5.522 4.478 10 10 10h46.111c5.522 0 10-4.478 10-10v-54.141h16.859c3.797 0 7.266-2.15 8.955-5.551 1.689-3.399 1.308-7.464-.985-10.489zm15.086 61.899c-5.522 0-10 4.478-10 10v54.141h-26.112v-54.141c0-5.522-4.478-10-10-10h-6.733l29.789-39.304 29.788 39.304z"/></g></g></svg>