<svg id="Capa_1" enable-background="new 0 0 512.002 512.002" height="512" viewBox="0 0 512.002 512.002" width="512" xmlns="http://www.w3.org/2000/svg"><g><g><path id="XMLID_327_" d="m214.236 355.093 75.526-43.605c49.867-28.79 111.501-27.934 160.548 2.232l-175.351-303.718c1.6 57.559-28.475 111.364-78.342 140.155l-75.526 43.605z" fill="#fff"/><path d="m332.44 469.216-120.99-112.599-57.114 32.483s78.379 72.904 121.316 112.902z" fill="#00ccf2"/><path id="XMLID_406_" d="m214.236 355.093-50.953 29.418c-44.55 25.721-101.517 10.457-127.238-34.093-25.721-44.55-10.457-101.517 34.093-127.238l50.953-29.418z" fill="#ff7d97"/></g><g><path d="m283.62 5.002c-2.288-3.964-6.979-5.871-11.382-4.622-4.405 1.246-7.401 5.324-7.274 9.9 1.092 39.286-13.205 76.625-40.258 105.138-3.802 4.006-3.636 10.336.371 14.137 4.007 3.804 10.337 3.637 14.137-.371 22.932-24.169 37.797-53.919 43.354-86.006l142.846 247.418c-45.853-16.777-97.353-12.768-140.65 12.232l-66.866 38.604-83.145-144.011 27.893-16.104c4.783-2.762 6.422-8.877 3.66-13.66-2.762-4.781-8.876-6.422-13.66-3.66l-87.506 50.521c-49.254 28.438-66.19 91.644-37.754 140.898 19.084 33.054 53.823 51.552 89.499 51.552 11.829 0 23.76-2.042 35.258-6.254 17.4 16.186 79.992 74.414 116.696 108.604 1.899 1.769 4.348 2.683 6.819 2.683 1.714 0 3.438-.439 4.997-1.34l56.787-32.786c2.747-1.586 4.579-4.381 4.937-7.533.357-3.151-.802-6.286-3.124-8.447l-111.031-103.33 66.541-38.417c46.741-26.985 104.337-26.187 150.31 2.089 3.899 2.399 8.93 1.843 12.211-1.349 3.282-3.192 3.978-8.204 1.688-12.169zm-238.915 340.416c-22.923-39.704-9.27-90.655 30.434-113.578l42.293-24.418 83.086 143.909-50.248 28.579c-38.307 16.933-84.157 2.586-105.565-34.492zm232.352 144.226c-33.68-31.368-84.134-78.307-105.62-98.294l38.667-22.325 105.621 98.294z"/><path d="m413.847 132.293c1.853 3.208 5.213 5.002 8.67 5.002 1.696 0 3.415-.433 4.99-1.342l38.984-22.507c4.783-2.761 6.422-8.877 3.66-13.66-2.761-4.781-8.874-6.421-13.66-3.66l-38.984 22.507c-4.783 2.76-6.422 8.877-3.66 13.66z"/><path d="m394.109 96.027c1.575.909 3.294 1.342 4.99 1.342 3.456 0 6.817-1.794 8.67-5.002l21.516-37.266c2.762-4.783 1.123-10.898-3.66-13.66-4.784-2.762-10.898-1.122-13.66 3.66l-21.516 37.266c-2.762 4.783-1.123 10.898 3.66 13.66z"/><path d="m488.416 157.519h-43.03c-5.522 0-10 4.478-10 10s4.478 10 10 10h43.03c5.522 0 10-4.478 10-10s-4.478-10-10-10z"/><circle cx="196.618" cy="150.154" r="10"/></g></g></svg>