<svg id="Capa_1" enable-background="new 0 0 512 512" height="512" viewBox="0 0 512 512" width="512" xmlns="http://www.w3.org/2000/svg"><g><g><path d="m336 10h-80v60h80l-20-30z" fill="#ff7e98"/><path d="m34.159 185.976c-13.343 0-24.159-10.816-24.159-24.159s10.816-24.159 24.159-24.159c5.774 0 11.07 2.032 15.226 5.411 3.131-16.826 17.88-29.569 35.615-29.569 17.734 0 32.484 12.743 35.615 29.57 4.156-3.38 9.452-5.411 15.226-5.411 13.342 0 24.159 10.816 24.159 24.159 0 13.342-10.816 24.159-24.159 24.159h-101.682z" fill="#60b6ff"/><path d="m316.98 502h-296.98c-5.523 0-10-4.477-10-10v-30c0-5.523 4.477-10 10-10h472c5.523 0 10 4.477 10 10v30c0 5.523-4.477 10-10 10h-95.02z" fill="#9eecba"/><path d="m212.79 266.41 29.58-29.57c6.22-6.22 16.85-1.81 16.85 6.98v74.67c0 8.79 10.62 13.19 16.84 6.98l49.35-49.35c1.85-1.85 4.36-2.89 6.98-2.89h28.603l-29.763-43.97-34.54-51.02-32.41-47.88c-3.96-5.86-12.6-5.86-16.56 0l-74.65 110.281 25.77 25.769c3.85 3.85 10.11 3.85 13.95 0z" fill="#fff"/><path d="m482 452-121.007-178.77h-28.603c-2.62 0-5.13 1.04-6.98 2.89l-49.35 49.35c-6.22 6.21-16.84 1.81-16.84-6.98v-74.67c0-8.79-10.63-13.2-16.85-6.98l-29.58 29.57c-3.84 3.85-10.1 3.85-13.95 0l-25.77-25.769-143.07 211.359z" fill="#9ba7c0"/><path d="m325.822 229.263c-18.68 0-33.822-15.143-33.822-33.822 0-18.68 15.142-33.822 33.822-33.822 8.084 0 15.498 2.845 21.317 7.576 4.384-23.558 25.033-41.398 49.861-41.398s45.477 17.84 49.861 41.398c5.818-4.731 13.233-7.576 21.317-7.576 18.679 0 33.822 15.142 33.822 33.822 0 18.679-15.143 33.822-33.822 33.822z" fill="#60b6ff"/></g><g><path d="m34.159 195.976h101.683c18.835 0 34.159-15.323 34.159-34.158s-15.324-34.159-34.159-34.159c-3.229 0-6.428.463-9.499 1.355-7.672-15.314-23.495-25.514-41.343-25.514s-33.671 10.201-41.342 25.514c-3.071-.892-6.271-1.355-9.499-1.355-18.835-.001-34.159 15.323-34.159 34.158s15.324 34.159 34.159 34.159zm0-48.318c3.283 0 6.366 1.097 8.917 3.17 2.737 2.227 6.446 2.847 9.757 1.629 3.312-1.217 5.738-4.089 6.383-7.558 2.307-12.399 13.151-21.399 25.784-21.399 12.632 0 23.476 9 25.784 21.399.645 3.469 3.071 6.34 6.383 7.557 3.312 1.218 7.019.6 9.757-1.628 2.551-2.073 5.634-3.17 8.917-3.17 7.807 0 14.159 6.352 14.159 14.159s-6.352 14.158-14.159 14.158h-101.682c-7.807 0-14.159-6.352-14.159-14.158 0-7.807 6.352-14.159 14.159-14.159z"/><path d="m492 442h-4.693l-137.23-202.737h118.102c24.164 0 43.822-19.658 43.822-43.822 0-24.163-19.658-43.821-43.822-43.821-5.289 0-10.517.969-15.419 2.814-9.42-21.839-31.121-36.637-55.759-36.637s-46.338 14.799-55.759 36.637c-4.902-1.845-10.13-2.814-15.419-2.814-10.702 0-20.515 3.861-28.133 10.257l-25.123-37.115c-1.724-2.551-3.982-4.618-6.565-6.111v-38.651h70c3.688 0 7.077-2.03 8.817-5.281 1.74-3.252 1.549-7.197-.497-10.266l-16.303-24.453 16.302-24.453c2.046-3.068 2.237-7.014.497-10.266-1.741-3.251-5.13-5.281-8.818-5.281h-80c-5.523 0-10 4.477-10 10v108.65c-2.583 1.492-4.84 3.557-6.561 6.104l-214.746 317.246h-4.693c-11.028 0-20 8.972-20 20v30c0 11.028 8.972 20 20 20h296.98c5.523 0 10-4.478 10-10s-4.477-10-10-10h-296.98v-30h472v30h-95.02c-5.523 0-10 4.478-10 10s4.477 10 10 10h95.02c11.028 0 20-8.972 20-20v-30c0-11.028-8.972-20-20-20zm-166.178-270.381c5.526 0 10.716 1.845 15.008 5.335 2.738 2.227 6.446 2.847 9.757 1.628 3.311-1.217 5.737-4.089 6.383-7.558 3.584-19.253 20.419-33.227 40.03-33.227 19.612 0 36.447 13.974 40.03 33.227.646 3.469 3.071 6.34 6.383 7.557 3.311 1.217 7.02.598 9.757-1.628 4.291-3.489 9.481-5.334 15.008-5.334 13.135 0 23.822 10.687 23.822 23.821 0 13.136-10.686 23.822-23.822 23.822h-142.356c-13.135 0-23.822-10.686-23.822-23.822 0-13.134 10.686-23.821 23.822-23.821zm-59.822-151.619h51.315l-9.635 14.453c-2.24 3.358-2.24 7.735 0 11.094l9.635 14.453h-51.315zm-10.002 115.966 29.183 43.112c-2.044 5.06-3.181 10.58-3.181 16.363 0 24.164 19.658 43.822 43.822 43.822h.104l16.223 23.968h-9.759c-5.31 0-10.301 2.067-14.051 5.818l-49.119 49.113v-74.342c0-8.065-4.815-15.271-12.268-18.358-7.451-3.086-15.951-1.395-21.652 4.306l-29.485 29.476-19.835-19.836zm-81.436 120.308 17.207 17.207c3.751 3.751 8.74 5.815 14.049 5.815h.014c5.309-.003 10.295-2.072 14.028-5.815l29.36-29.346v74.354c0 8.061 4.81 15.264 12.254 18.351 2.474 1.026 5.062 1.525 7.628 1.525 5.156 0 10.214-2.018 14.028-5.825l49.311-49.31h23.245l107.47 158.77h-414.312z"/><circle cx="357" cy="501.999" r="10"/></g></g></svg>