<svg id="Capa_1" enable-background="new 0 0 514.674 514.674" height="512" viewBox="0 0 514.674 514.674" width="512" xmlns="http://www.w3.org/2000/svg"><g><g><g><path d="m376.122 132.28v106.51l-111.72 111.72 42.74 42.74 68.98-68.98v155.78c0 12.12-9.82 21.95-21.94 21.95h-307.12c-12.12 0-21.95-9.83-21.95-21.95v-347.77z" fill="#fff"/></g><g><path d="m252.282 260.801h228.694v60.445h-228.694z" fill="#ffce62" transform="matrix(.707 -.707 .707 .707 -98.402 344.485)"/></g><g><path d="m264.403 350.508-27.413 70.154 70.154-27.412z" fill="#efd0c1"/></g><g><path d="m480.457 177.195c-19.955-18.073-39.72-5.854-54.343 11.602l42.741 42.741c17.431-14.542 29.881-34.574 11.602-54.343z" fill="#ff7e96"/></g><g><path d="m376.135 132.28v-60.91c0-12.12-9.83-21.94-21.95-21.94h-30.39c.138 16.128 3.163 38.423-19.391 39.45-22.539-1.024-19.52-23.346-19.379-39.45h-65.02c.136 16.122 3.167 38.425-19.381 39.45-22.545-1.021-19.517-23.347-19.379-39.45h-65.02c.138 16.123 3.161 38.422-19.381 39.45-22.551-1.023-19.529-23.34-19.389-39.45h-30.39c-12.12 0-21.95 9.82-21.95 21.94v60.91z" fill="#5c90ae"/></g><g><g><g><path d="m96.841 88.877c-10.706 0-19.384-8.679-19.384-19.384 2.172-17.69-9.299-58.947 19.383-59.493 10.706 0 19.385 8.678 19.385 19.384-2.172 17.689 9.299 58.947-19.384 59.493z" fill="#fff"/></g><g><path d="m304.41 88.877c-10.561-.05-19.384-8.785-19.384-19.384 2.173-17.702-9.299-58.943 19.384-59.492 10.706 0 19.385 8.678 19.385 19.384-2.173 17.676 9.297 58.95-19.385 59.492z" fill="#fff"/></g></g><g><g><path d="m200.625 88.877c-10.561-.05-19.384-8.785-19.384-19.384 2.173-17.702-9.299-58.943 19.384-59.492 10.706 0 19.385 8.678 19.385 19.384-2.173 17.676 9.298 58.95-19.385 59.492z" fill="#fff"/></g></g></g></g><path d="m92.111 206.993c0 5.523 4.477 10 10 10h195.106c5.522 0 10-4.477 10-10s-4.478-10-10-10h-195.106c-5.523 0-10 4.477-10 10z"/><path d="m276.944 268.216h-174.833c-5.523 0-10 4.477-10 10s4.477 10 10 10h174.833c12.923.19 13.011-20.191 0-20z"/><path d="m215.654 339.439h-113.543c-12.942-.19-12.998 20.191.001 20-.001 0 113.542 0 113.542 0 12.942.19 12.998-20.191 0-20z"/><path d="m195.663 410.663h-93.553c-12.948-.19-12.994 20.191.001 20-.001 0 93.552 0 93.552 0 12.948.189 12.995-20.192 0-20z"/><path d="m96.841 0c-21.706.182-31.863 19.746-29.384 39.43-24.703-1.73-50.817 1.293-52.341 31.942 0-.001-.004 408.678-.004 408.678 0 17.617 14.333 31.95 31.95 31.95 387.926-14.433 337.103 70.819 339.06-183.586l101.406-101.406c36.711-38.14-18.769-93.3-56.885-56.883.001-.001-44.521 44.521-44.521 44.521l.013-143.276c-1.517-30.56-27.557-33.713-52.341-31.94 6.234-52.418-65.016-52.381-58.769 0h-45.015c6.234-52.419-65.016-52.38-58.769 0h-45.016c2.485-19.683-7.692-39.256-29.384-39.43zm-9.384 29.384c-.168-12.161 18.939-12.181 18.769.001 0-.001 0 40.105 0 40.105.091 12.111-18.925 12.206-18.769.002zm180.691 339.014 21.106 21.106-34.642 13.536zm100.912-51.207c0-.004-61.915 61.915-61.917 61.915l-28.598-28.598c30.058-30.056 118.948-118.948 147.568-147.569l28.599 28.599zm75.727-132.925c23.788-19.849 49.092 14.763 24.068 33.13l-28.599-28.599zm-149.761-154.882c-.168-12.161 18.939-12.18 18.768.001 0-.001 0 40.108 0 40.108.156 12.181-18.864 12.131-18.769-.004.001.001.001-40.105.001-40.105zm-94.401-9.384c5.174 0 9.384 4.21 9.384 9.384l-.004 40.105c0 5.093-4.283 9.387-9.38 9.387s-9.38-4.293-9.38-9.387l-.004-40.105c0-5.174 4.21-9.384 9.384-9.384zm-29.384 39.43c-6.075 52.362 64.858 52.323 58.769 0h45.016c-6.1 52.309 65.004 52.463 58.77 0 10.103.705 32.402-4.306 32.339 11.941.001 0 .001 50.909.001 50.909h-121.896c-5.435-.031-10.033 4.458-10.008 10.001 0 5.523 4.477 10 10 10h121.89v92.366l-108.791 108.79c-.952.993-1.746 2.148-2.243 3.432 0 0-27.413 70.154-27.413 70.154-3.339 7.762 5.21 16.306 12.954 12.953 83.111-32.341 62.647-17.937 125.493-81.563v131.637c0 6.589-5.356 11.95-11.94 11.95h-307.12c-6.589 0-11.95-5.361-11.95-11.95v-337.77h121.23c5.433.03 10.029-4.46 10.004-10.001 0-5.523-4.477-10-10-10h-121.231v-50.909c-.089-16.23 22.282-11.247 32.34-11.94-6.22 52.501 64.885 52.271 58.77 0z"/><path d="m191.392 136.11c3.536 8.487 16.13 7.854 18.8-.928 3.704-17.556-24.354-16.257-18.8.928z"/></g></svg>