<svg id="Capa_1" enable-background="new 0 0 511.96 511.96" height="360" viewBox="0 0 511.96 511.96" width="360" xmlns="http://www.w3.org/2000/svg"><g><g><g><circle cx="383.288" cy="90.426" fill="#fa8ebb" r="64.535"/></g><g><g><path d="m352.015 332.176c4.103 50.296-22.273 100.304-70.273 124-46.197 22.802-99.572 14.864-136.895-15.955-13.024-10.733-24.058-24.253-32.173-40.224-.253-.466-.48-.922-.709-1.391-7.777-15.738-11.973-32.319-12.924-48.811-.006-.16-.013-.321-.02-.481-2.611-49.096 23.624-97.353 70.514-120.484 45.084-22.262 97-15.243 134.143 13.739 9.784 7.633 18.544 16.786 25.884 27.334 2.862 4.099 5.528 8.431 7.932 12.956.621 1.166 1.23 2.346 1.817 3.541 7.293 14.779 11.438 30.288 12.704 45.776z" fill="#9d98e9"/></g><g><path d="m337.495 282.859-71.013 38.934c-5.296 2.904-9.535 7.418-12.114 12.876l-12.621 26.765c-5.266 11.153-17.099 17.677-29.345 16.183l-36.9-4.513c-5.708-.703-11.496.338-16.612 2.985l-46.216 23.907c-.253-.466-.48-.922-.709-1.391-7.777-15.738-11.973-32.319-12.924-48.811-.006-.16-.013-.321-.02-.481l69.699-36.413c5.627-2.931 10.124-7.673 12.765-13.449l4.592-10.033c6.187-13.541 21.751-20.059 35.756-14.98 4.233 1.534 8.715 2.034 13.091 1.519 3.373-.397 6.688-1.395 9.772-2.985l58.982-30.405c9.784 7.633 18.544 16.786 25.884 27.334 2.862 4.101 5.529 8.434 7.933 12.958z" fill="#cfcbf2"/></g></g><g><circle cx="117.263" cy="139.423" fill="#fff" r="48.996"/></g><g><circle cx="452.963" cy="437.072" fill="#fff" r="48.996"/></g></g><path d="m308.754 90.426c0 41.099 33.436 74.535 74.535 74.535s74.535-33.436 74.535-74.535c0-40.592-33.993-74.535-74.535-74.535-40.542.001-74.535 33.979-74.535 74.535zm74.534 54.535c-28.092 0-51.286-21.354-54.216-48.681h27.84c10.247 0 19.88-3.99 27.126-11.236l7.208-7.208c3.468-3.468 8.079-5.378 12.983-5.378h30.538c1.971 5.63 3.056 11.673 3.056 17.968 0 30.071-24.464 54.535-54.535 54.535zm0-109.069c15.321 0 29.177 6.36 39.093 16.567h-18.152c-10.247 0-19.88 3.99-27.126 11.235l-7.208 7.208c-3.468 3.468-8.079 5.378-12.983 5.378h-26.287c6.248-23.233 27.485-40.388 52.663-40.388z"/><path d="m399.018 104.285h-8.291c-5.523 0-10 4.477-10 10s4.477 10 10 10h8.291c5.523 0 10-4.477 10-10s-4.477-10-10-10z"/><path d="m66.256 475.345c9.721 0 20.851-.805 33.588-2.62 17.513-2.495 36.44-6.716 56.238-12.474 20.525 12.085 44.063 18.74 68.069 19.021h.119c5.468 0 9.933-4.4 9.997-9.883.064-5.522-4.36-10.052-9.883-10.116-13.987-.163-27.779-2.88-40.705-7.852 25.367-8.826 51.69-19.882 77.947-32.838 27.329-13.484 53.069-28.277 76.221-43.69-6.333 21.943-19.036 41.849-36.938 56.91-.046.03-.091.061-.137.092-4.489 3.078-5.681 9.168-2.725 13.704 3.199 4.956 10.216 6.073 14.781 2.305 27.428-22.652 44.653-54.928 48.681-89.655 15.567-11.591 29.544-23.387 41.517-35.117 46.978-46.028 47.427-74.764 39.532-90.765-10.311-20.897-37.663-25.877-58.792-26.375-25.706-.597-58.361 4.709-94.656 15.356-15.005-7.855-31.403-12.906-48.416-14.803-25.938-2.895-52.078 1.711-75.583 13.317-39.566 19.518-66.62 56.414-74.136 98.626-70.063 50.548-102.633 99.138-87.215 130.386 6.351 12.872 22.524 26.471 62.496 26.471zm186.521-74.697c-31.867 15.724-63.74 28.545-93.676 37.824-2.709-1.872-5.344-3.862-7.894-5.968-9.787-8.066-18.078-17.587-24.747-28.379l37.027-19.153c3.34-1.729 7.072-2.401 10.802-1.94l36.902 4.513c16.564 2.021 32.476-6.755 39.601-21.844l12.619-26.758c1.693-3.584 4.417-6.481 7.879-8.379l61.753-33.858c4.951 11.578 7.981 23.754 9.006 36.284.397 4.866.481 9.718.274 14.531-26.15 18.751-56.624 36.883-89.546 53.127zm49.608-146.162c8.199 7.147 15.357 15.428 21.266 24.559l-61.977 33.98c-7.187 3.941-12.84 9.948-16.351 17.38l-12.62 26.76c-3.433 7.271-11.107 11.5-19.087 10.526l-36.891-4.511c-7.74-.956-15.496.44-22.43 4.028l-36.906 19.091c-2.032-4.988-3.71-10.124-5.026-15.346-1.322-5.244-1.794-10.564-2.849-15.838l63.825-33.345c7.565-3.939 13.688-10.389 17.24-18.156l4.595-10.039c3.993-8.739 14.206-13.015 23.254-9.734 5.626 2.039 11.736 2.745 17.666 2.048 4.619-.544 9.055-1.899 13.185-4.028zm80.91-28.499c22.062.52 36.739 5.929 41.328 15.23 6.822 13.827-6.483 39.109-35.593 67.63-8.064 7.901-17.1 15.844-26.967 23.738-2.722-37.542-21.328-73.03-50.658-96.623 27.558-7.01 52.128-10.443 71.89-9.975zm-209.331 11.809c20.071-9.911 42.378-13.846 64.513-11.375 15.399 1.718 30.206 6.461 43.632 13.872.61.431 1.261.798 1.951 1.084.017.01.034.019.051.028l-43.995 22.68c-1.991 1.026-4.13 1.679-6.36 1.942-2.854.337-5.798-.005-8.511-.988-18.77-6.807-39.97 2.078-48.258 20.219l-4.594 10.037c-1.71 3.742-4.654 6.844-8.301 8.743l-54.819 28.64c3.404-40.424 27.612-76.59 64.691-94.882zm-138.649 159.4c12.115-16.374 30.437-34.187 53.556-52.153.7 38.076 17.773 75.04 46.415 100.164-13.35 3.396-26.174 5.997-38.263 7.719-40.346 5.749-68.505.926-75.327-12.901-4.662-9.448.174-24.659 13.619-42.829z"/><path d="m276.38 456.42c-3.04-4.52-9.326-5.806-13.87-2.77-4.538 3.032-5.77 9.334-2.76 13.87 3.016 4.546 9.333 5.764 13.86 2.76 4.53-3.007 5.783-9.339 2.77-13.86z"/><path d="m166.26 129.423c-21.503 0-38.997-17.494-38.997-38.997 0-5.523-4.477-10-10-10s-10 4.477-10 10c0 21.503-17.494 38.997-38.996 38.997-5.523 0-10 4.477-10 10s4.477 10 10 10c21.502 0 38.996 17.494 38.996 38.997 0 5.523 4.477 10 10 10s10-4.477 10-10c0-21.503 17.494-38.997 38.997-38.997 5.523 0 10-4.477 10-10s-4.477-10-10-10zm-48.997 26.166c-4.288-6.379-9.787-11.878-16.167-16.167 6.379-4.288 11.878-9.787 16.167-16.167 4.289 6.379 9.787 11.878 16.167 16.167-6.38 4.289-11.878 9.788-16.167 16.167z"/><path d="m462.963 388.075c0-5.523-4.477-10-10-10s-10 4.477-10 10c0 21.503-17.494 38.997-38.997 38.997-5.523 0-10 4.477-10 10s4.477 10 10 10c21.503 0 38.997 17.494 38.997 38.997 0 5.523 4.477 10 10 10s10-4.477 10-10c0-21.503 17.494-38.997 38.997-38.997 5.523 0 10-4.477 10-10s-4.477-10-10-10c-21.503 0-38.997-17.494-38.997-38.997zm-10 65.163c-4.288-6.379-9.787-11.878-16.167-16.167 6.379-4.288 11.878-9.787 16.167-16.167 4.288 6.379 9.787 11.878 16.167 16.167-6.38 4.289-11.879 9.788-16.167 16.167z"/></g></svg>