<svg id="Capa_1" enable-background="new 0 0 512 512" height="450" viewBox="0 0 512 512" width="450" xmlns="http://www.w3.org/2000/svg"><g><g><path d="m357.867 371.355c2.901-5.163 6.698-9.754 11.177-13.566-12.146-51.411-58.327-89.672-113.449-89.672-54.9 0-100.928 37.953-113.298 89.052 4.795 3.922 8.848 8.717 11.906 14.149 5.438-2.848 11.62-4.468 18.184-4.468 7.69 0 14.857 2.22 20.913 6.041 5.548-29.343 31.362-51.611 62.294-51.611 31.095 0 57.015 22.504 62.377 52.076 6.204-4.108 13.64-6.506 21.638-6.506 6.595 0 12.804 1.633 18.258 4.505z" fill="#5cd0b3"/><path d="m255.596 214.88c-82.086 0-150.751 58.548-166.441 136.077 6.562-3.198 13.93-4.998 21.723-4.998 11.924 0 22.859 4.207 31.42 11.21 12.37-51.098 58.398-89.052 113.298-89.052 55.122 0 101.303 38.26 113.449 89.672 8.668-7.376 19.897-11.83 32.171-11.83 7.401 0 14.421 1.624 20.73 4.526-15.872-77.295-84.429-135.605-166.35-135.605z" fill="#ffee80"/><path d="m67.53 371.355c4.951-8.81 12.509-15.956 21.625-20.398 15.689-77.529 84.354-136.077 166.441-136.077 81.921 0 150.478 58.31 166.349 135.605 9.548 4.393 17.467 11.721 22.597 20.833 5.438-2.848 11.62-4.468 18.184-4.468 5.475 0 10.687 1.124 15.421 3.149-7.593-116.165-104.501-208.356-222.552-208.356-118.179 0-215.168 92.39-222.576 208.732 4.954-2.257 10.454-3.525 16.254-3.525 6.594 0 12.802 1.633 18.257 4.505z" fill="#ff7d97"/><path d="m154.205 371.318c-3.058-5.432-7.112-10.227-11.906-14.149-8.561-7.003-19.496-11.21-31.42-11.21-7.792 0-15.16 1.8-21.723 4.998-9.117 4.442-16.675 11.588-21.625 20.398-5.455-2.872-11.663-4.505-18.256-4.505-5.799 0-11.3 1.268-16.254 3.525-13.565 6.181-23.001 19.849-23.001 35.729 0 21.679 17.575 39.254 39.254 39.254h123.115c21.679 0 39.254-17.575 39.254-39.254 0-13.99-7.324-26.262-18.341-33.213-6.056-3.821-13.223-6.041-20.913-6.041-6.564 0-12.747 1.62-18.184 4.468z" fill="#fff"/><path d="m478.148 369.999c-4.734-2.025-9.946-3.149-15.421-3.149-6.564 0-12.747 1.62-18.184 4.468-5.13-9.111-13.049-16.44-22.597-20.833-6.309-2.903-13.329-4.526-20.73-4.526-12.274 0-23.503 4.454-32.171 11.83-4.48 3.812-8.276 8.403-11.177 13.566-5.455-2.872-11.663-4.505-18.256-4.505-7.998 0-15.434 2.398-21.638 6.506-10.613 7.026-17.616 19.067-17.616 32.748 0 21.679 17.575 39.254 39.254 39.254h123.115c21.679 0 39.254-17.575 39.254-39.254-.001-16.204-9.821-30.112-23.833-36.105z" fill="#fff"/><g fill="#ffee80"><path d="m97.782 69.249 11.36 20.771 20.771 11.36c3.476 1.901 3.476 6.893 0 8.794l-20.771 11.36-11.36 20.771c-1.901 3.476-6.893 3.476-8.794 0l-10.656-19.483c-.46-.841-1.151-1.532-1.992-1.992l-19.483-10.656c-3.476-1.901-3.476-6.893 0-8.794l20.771-11.36 11.36-20.771c1.901-3.476 6.893-3.476 8.794 0z"/><path d="m460.782 112.138 11.36 20.771 20.771 11.36c3.476 1.901 3.476 6.893 0 8.794l-20.771 11.36-11.36 20.771c-1.901 3.476-6.893 3.476-8.794 0l-10.656-19.483c-.46-.841-1.151-1.532-1.992-1.992l-19.483-10.656c-3.476-1.901-3.476-6.893 0-8.794l20.771-11.36 11.36-20.771c1.901-3.476 6.893-3.476 8.794 0z"/></g></g><g><path d="m487.712 363.66c-2.74-30.641-11.391-59.965-25.758-87.243-2.577-4.896-8.636-6.777-13.534-4.196-4.896 2.578-6.775 8.638-4.196 13.534 11.798 22.402 19.363 46.319 22.594 71.259-1.351-.112-2.713-.183-4.092-.183-4.877 0-9.74.734-14.393 2.154-4.856-6.23-10.866-11.378-17.62-15.22-8.913-38.097-30.369-72.678-60.797-97.797-32.112-26.509-72.711-41.108-114.319-41.108-83.674 0-156.637 58.405-175.269 139.535-6.331 3.775-11.982 8.699-16.586 14.611-4.675-1.434-9.565-2.176-14.468-2.176-1.658 0-3.296.085-4.912.246 13.636-105.038 103.841-185.413 211.235-185.413 48.802 0 96.526 16.993 134.379 47.849 4.29 3.496 10.601 2.854 14.097-1.435s2.853-10.601-1.435-14.097c-41.419-33.762-93.639-52.356-147.041-52.356-120.777 0-221.697 92.916-232.171 212.553-14.045 8.691-23.426 24.232-23.426 41.927 0 27.169 22.104 49.273 49.273 49.273h123.115c27.169 0 49.273-22.104 49.273-49.273 0-14.857-6.619-28.188-17.051-37.23 6.828-22.092 27.384-37.576 50.985-37.576 23.851 0 44.503 15.723 51.156 38.128-10.067 9.028-16.415 22.124-16.415 36.678 0 27.169 22.105 49.273 49.274 49.273h123.114c27.17 0 49.274-22.104 49.274-49.273.002-18.054-9.764-33.862-24.286-42.444zm-232.116-138.761c69.895 0 131.481 45.963 152.301 111.423-2.204-.249-4.434-.382-6.682-.382-9.309 0-18.32 2.184-26.407 6.179-7.859-21.931-21.769-41.572-40.105-56.266-22.336-17.9-50.43-27.757-79.107-27.757-28.972 0-56.236 9.525-78.845 27.546-18.356 14.631-32.316 34.227-40.235 56.12-7.889-3.76-16.621-5.821-25.638-5.821-2.571 0-5.116.183-7.629.508 20.777-65.548 82.344-111.55 152.347-111.55zm-83.207 210.44h-123.116c-16.12 0-29.234-13.115-29.234-29.234 0-16.12 13.114-29.235 29.234-29.235 4.792 0 9.364 1.128 13.59 3.352 4.801 2.528 10.744.773 13.402-3.958 7.03-12.512 20.293-20.284 34.613-20.284 14.305 0 27.562 7.761 34.596 20.255 2.658 4.72 8.585 6.473 13.38 3.96 4.211-2.206 8.765-3.324 13.535-3.324 16.12 0 29.234 13.114 29.234 29.235 0 16.118-13.114 29.233-29.234 29.233zm83.207-124.08c-31.03 0-58.24 19.465-68.783 47.73-4.565-1.4-9.407-2.159-14.424-2.159-4.876 0-9.74.734-14.393 2.154-1.382-1.773-2.86-3.457-4.419-5.05 6.211-20.586 18.713-39.111 35.665-52.622 19.023-15.163 41.969-23.178 66.355-23.178 24.488 0 47.509 8.076 66.575 23.356 17.048 13.662 29.556 32.388 35.665 53.176-1.312 1.386-2.576 2.824-3.757 4.341-4.675-1.434-9.564-2.176-14.468-2.176-5.28 0-10.364.844-15.136 2.388-10.47-28.413-37.69-47.96-68.88-47.96zm207.13 124.08h-123.114c-16.12 0-29.235-13.115-29.235-29.234 0-16.12 13.114-29.235 29.235-29.235 4.793 0 9.364 1.128 13.588 3.351 4.8 2.527 10.744.773 13.402-3.957 7.031-12.512 20.294-20.285 34.613-20.285 14.305 0 27.562 7.761 34.596 20.255 2.657 4.719 8.584 6.472 13.381 3.96 4.21-2.206 8.764-3.324 13.534-3.324 16.12 0 29.235 13.114 29.235 29.235 0 16.119-13.115 29.234-29.235 29.234z"/><path d="m52.05 118.964 18.196 9.952 9.953 18.196c2.637 4.822 7.691 7.818 13.187 7.818 5.497 0 10.55-2.996 13.188-7.818l9.952-18.196 18.196-9.952c4.823-2.637 7.819-7.691 7.819-13.188s-2.996-10.55-7.819-13.188l-18.196-9.952-9.952-18.196c-2.638-4.822-7.691-7.818-13.188-7.818-5.496 0-10.549 2.996-13.187 7.818l-9.952 18.196-18.197 9.953c-4.823 2.637-7.819 7.691-7.819 13.188s2.996 10.55 7.819 13.187zm30.386-20.154c1.681-.919 3.064-2.301 3.983-3.983l6.967-12.737 6.966 12.737c.919 1.682 2.302 3.064 3.983 3.983l12.737 6.966-12.737 6.966c-1.681.919-3.064 2.301-3.983 3.983l-6.967 12.737-6.261-11.449c-1.382-2.527-3.449-4.594-5.976-5.976l-11.45-6.262z"/><path d="m415.05 161.854 18.196 9.951 9.951 18.195c2.637 4.822 7.69 7.819 13.186 7.819h.002c5.496 0 10.55-2.996 13.188-7.818l9.952-18.196 18.197-9.952c4.823-2.638 7.818-7.691 7.818-13.188s-2.995-10.55-7.819-13.188l-18.196-9.952-9.952-18.196c-2.638-4.823-7.692-7.819-13.19-7.819-5.496 0-10.549 2.998-13.185 7.819l-9.952 18.196-18.197 9.952c-4.823 2.638-7.818 7.691-7.818 13.188s2.995 10.551 7.819 13.189zm30.385-20.154c1.682-.919 3.064-2.301 3.983-3.983l6.967-12.737 6.966 12.737c.92 1.682 2.301 3.064 3.983 3.983l12.737 6.966-12.737 6.966c-1.682.919-3.064 2.301-3.983 3.983l-6.967 12.737-6.261-11.448c-1.38-2.524-3.444-4.59-5.976-5.977l-11.449-6.261z"/><circle cx="428.086" cy="243.77" r="10.02"/></g></g></svg>