<svg id="Capa_1" enable-background="new 0 0 512 512" height="360" viewBox="0 0 512 512" width="360" xmlns="http://www.w3.org/2000/svg"><g><g><g><g><circle id="XMLID_773_" cx="133.063" cy="378.925" fill="#ffcd69" r="123.063"/></g></g></g><g><path id="XMLID_1000_" d="m356.937 128.031c16.931 0 30.656-13.725 30.656-30.656v-5.681c0-15.301 12.404-27.705 27.705-27.705 15.301 0 27.705 12.404 27.705 27.705v60.24-35.547h31.711c15.069 0 27.285 12.216 27.285 27.285v85.159c0 15.069-12.216 27.285-27.285 27.285h-62.993c-13.701 0-25.961-8.511-30.751-21.347h-24.035v-106.738z" fill="#fff"/><path id="XMLID_993_" d="m298.157 111.19h58.78v144.926h-58.78z" fill="#00ccf2" transform="matrix(-1 0 0 -1 655.094 367.306)"/></g><g id="XMLID_1001_"><path id="XMLID_1003_" d="m267.387 20.967c-14.637-14.637-38.368-14.637-53.005 0l-8.675 8.675-8.675-8.675c-14.637-14.637-38.368-14.637-53.005 0l-.002.002c-14.637 14.637-14.637 38.368 0 53.005l48.597 48.597c7.224 7.224 18.935 7.224 26.16.001l48.605-48.598c14.637-14.637 14.638-38.37 0-53.007z" fill="#ff7d97"/></g><g id="XMLID_1021_"><path id="XMLID_1023_" d="m395.235 420.818c-11.101-11.101-29.1-11.102-40.202 0l-6.58 6.58-6.58-6.58c-11.101-11.102-29.1-11.102-40.202 0l-.001.001c-11.101 11.101-11.101 29.1 0 40.202l36.858 36.858c5.479 5.479 14.361 5.479 19.841.001l36.864-36.859c11.104-11.101 11.104-29.101.002-40.203z" fill="#ff7d97"/></g><g id="XMLID_1018_"><path id="XMLID_1020_" d="m123.751 125.809c-12.394-12.394-32.488-12.394-44.882 0l-7.346 7.346-7.345-7.345c-12.394-12.394-32.488-12.394-44.882 0l-.002.002c-12.394 12.394-12.394 32.488 0 44.882l41.149 41.149c6.117 6.117 16.033 6.117 22.15.001l41.155-41.149c12.397-12.396 12.397-32.492.003-44.886z" fill="#ff7d97"/></g><g id="XMLID_1024_"><path id="XMLID_1026_" d="m493.086 307.896c-11.885-11.885-31.155-11.885-43.041 0l-7.044 7.044-7.044-7.044c-11.885-11.885-31.156-11.885-43.041 0l-.002.002c-11.885 11.885-11.885 31.155 0 43.041l39.461 39.461c5.866 5.866 15.376 5.866 21.242.001l39.468-39.462c11.886-11.885 11.887-31.157.001-43.043z" fill="#ff7d97"/></g><g><path d="m180.915 254.728c-5.151-1.987-10.94.58-12.928 5.734-1.986 5.152.581 10.94 5.734 12.928 21.08 8.126 39.093 22.255 52.092 40.857 13.289 19.019 20.313 41.384 20.313 64.678 0 62.344-50.72 113.063-113.063 113.063s-113.063-50.719-113.063-113.063c0-23.294 7.024-45.659 20.313-64.678 12.999-18.603 31.012-32.73 52.093-40.858 5.152-1.986 7.72-7.774 5.732-12.928-1.986-5.152-7.776-7.716-12.928-5.733-24.81 9.565-46.004 26.186-61.291 48.064-15.648 22.395-23.919 48.721-23.919 76.133 0 73.371 59.692 133.063 133.063 133.063s133.063-59.692 133.063-133.063c0-27.412-8.271-53.739-23.92-76.134-15.286-21.878-36.48-38.498-61.291-48.063z"/><path d="m105.005 407.599c-3.906-3.904-10.238-3.904-14.143 0-3.905 3.905-3.905 10.237 0 14.143 11.631 11.63 26.907 17.444 42.184 17.444s30.554-5.814 42.184-17.444c3.905-3.905 3.905-10.237 0-14.143-3.906-3.904-10.236-3.904-14.143 0-15.461 15.462-40.621 15.461-56.082 0z"/><path d="m474.715 106.387h-21.711v-14.693c0-20.791-16.914-37.705-37.705-37.705s-37.706 16.914-37.706 37.705v5.681c0 7.763-4.309 14.532-10.656 18.061v-4.245c0-5.522-4.478-10-10-10h-58.78c-5.522 0-10 4.478-10 10v144.926c0 5.522 4.478 10 10 10h58.78c5.522 0 10-4.478 10-10v-11.348h7.745c7.57 13.004 21.687 21.348 37.04 21.348h62.993c20.56 0 37.285-16.726 37.285-37.285v-85.159c0-20.56-16.726-37.286-37.285-37.286zm-127.778 139.729h-38.78v-124.926h38.78zm145.063-17.285c0 9.531-7.754 17.285-17.285 17.285h-62.993c-9.477 0-18.068-5.965-21.381-14.843-1.459-3.911-5.194-6.505-9.369-6.505h-14.035v-87.985c17.598-4.468 30.656-20.44 30.656-39.409v-5.681c0-9.763 7.943-17.705 17.706-17.705s17.705 7.942 17.705 17.705v47.688c0 5.522 4.478 10 10 10s10-4.478 10-10v-12.994h21.711c9.531 0 17.285 7.754 17.285 17.284z"/><path d="m274.458 13.895c-18.515-18.513-48.635-18.511-67.147 0l-1.604 1.604-1.604-1.604c-18.513-18.511-48.633-18.513-67.15.002-8.968 8.969-13.907 20.892-13.907 33.574s4.939 24.606 13.907 33.574l48.597 48.597c5.556 5.556 12.853 8.333 20.15 8.333 7.297-.001 14.595-2.777 20.15-8.332l48.604-48.598c8.97-8.967 13.909-20.891 13.91-33.574s-4.937-24.607-13.906-33.576zm-14.144 53.008-48.604 48.597c-3.312 3.313-8.705 3.312-12.018 0l-48.597-48.597c-5.191-5.19-8.05-12.091-8.05-19.432 0-7.34 2.858-14.241 8.052-19.434 5.357-5.358 12.394-8.036 19.432-8.036 7.036 0 14.074 2.679 19.431 8.035l8.675 8.676c1.875 1.876 4.419 2.93 7.071 2.93s5.195-1.054 7.071-2.929l8.676-8.676c10.715-10.713 28.147-10.715 38.862 0 5.191 5.19 8.05 12.092 8.05 19.433s-2.859 14.242-8.051 19.433z"/><path d="m348.454 413.264c-15.021-14.5-39.035-14.336-53.854.482-.031.031-.062.063-.094.096-7.199 7.246-11.162 16.857-11.162 27.078 0 10.264 3.997 19.914 11.255 27.172l36.858 36.858c4.686 4.685 10.838 7.027 16.992 7.027 6.152-.001 12.306-2.343 16.989-7.026l36.865-36.859c7.259-7.257 11.257-16.907 11.257-27.172.001-10.265-3.997-19.915-11.255-27.174-14.82-14.821-38.834-14.981-53.851-.482zm39.71 40.686-36.866 36.859c-1.571 1.571-4.128 1.57-5.697-.001l-36.858-36.858c-3.48-3.48-5.397-8.107-5.397-13.029s1.917-9.549 5.396-13.029c.023-.022.046-.046.068-.068 7.19-7.118 18.831-7.098 25.993.066l6.58 6.58c1.876 1.875 4.419 2.929 7.071 2.929s5.196-1.054 7.071-2.93l6.579-6.579c7.183-7.186 18.875-7.186 26.06 0 3.481 3.48 5.397 8.108 5.397 13.03.001 4.922-1.916 9.549-5.397 13.03z"/><path d="m53.372 218.912c5.004 5.003 11.574 7.505 18.147 7.504 6.57 0 13.143-2.501 18.145-7.503l41.155-41.149c7.884-7.883 12.227-18.363 12.227-29.512.001-11.148-4.341-21.63-12.224-29.514-16.272-16.271-42.75-16.273-59.024 0l-.274.274-.273-.274c-16.272-16.271-42.75-16.273-59.026.002-16.272 16.272-16.272 42.751 0 59.023zm-27.004-86.032c4.237-4.238 9.803-6.356 15.37-6.356 5.565 0 11.132 2.119 15.369 6.355l7.345 7.346c1.875 1.876 4.419 2.93 7.071 2.93s5.195-1.054 7.071-2.929l7.346-7.346c4.105-4.105 9.563-6.366 15.37-6.366 5.806 0 11.264 2.261 15.369 6.366s6.367 9.564 6.366 15.37c0 5.806-2.262 11.265-6.367 15.37l-41.155 41.15c-2.209 2.207-5.802 2.208-8.009-.001l-41.148-41.148c-8.474-8.475-8.474-22.264.002-30.741z"/><path d="m500.156 300.825c-15.754-15.754-41.386-15.762-57.155-.027-15.768-15.736-41.398-15.728-57.158.029-7.637 7.637-11.843 17.791-11.843 28.591s4.206 20.954 11.843 28.592l39.461 39.461c4.878 4.878 11.285 7.316 17.692 7.316s12.814-2.438 17.691-7.315l39.467-39.461c7.639-7.636 11.846-17.791 11.846-28.593 0-10.8-4.205-20.955-11.844-28.593.001 0 .001 0 0 0zm-14.142 43.043-39.467 39.462c-1.96 1.958-5.145 1.957-7.101-.001l-39.461-39.461c-3.86-3.859-5.985-8.991-5.985-14.449s2.125-10.59 5.987-14.451c3.983-3.984 9.216-5.976 14.449-5.976 5.232 0 10.466 1.992 14.449 5.975l7.044 7.045c1.875 1.876 4.419 2.93 7.071 2.93s5.196-1.054 7.071-2.93l7.043-7.044c7.969-7.967 20.933-7.966 28.899-.001 3.859 3.86 5.985 8.993 5.985 14.451.002 5.458-2.124 10.59-5.984 14.45z"/><circle cx="133.063" cy="255.862" r="10"/><circle cx="93.875" cy="346.891" r="10"/><circle cx="172.25" cy="346.891" r="10"/></g></g></svg>