<svg id="Capa_1" enable-background="new 0 0 512.165 512.165" height="480" viewBox="0 0 512.165 512.165" width="480" xmlns="http://www.w3.org/2000/svg"><g><g><path d="m354.153 189.863c5.13 6.98 10.27 13.98 15.41 20.96 23.46 31.93 36.99 69.98 39.03 109.4.29 5.69-4.3 10.44-9.99 10.44h-57.24z" fill="#ff7e98"/><path d="m170.803 330.663h-57.24c-5.69 0-10.28-4.75-9.99-10.44 2.04-39.42 15.57-77.47 39.03-109.4 5.14-6.98 10.28-13.98 15.41-20.96z" fill="#ff7e98"/><path d="m356.083 219.754c0-50.949-17.019-96.211-37.013-131.816h-125.974c-19.994 35.605-37.013 80.867-37.013 131.816 0 35.589 3.56 65.605 9.385 90.919h181.229c5.826-25.314 9.386-55.331 9.386-90.919z" fill="#ced3df"/><path d="m291.793 370.663c14.74 12.3 24.29 32.02 24.29 54.26h-120c0-22.24 9.55-41.96 24.29-54.26z" fill="#9ba7c0"/><path d="m316.083 424.923c12.8-14.85 33.4-19.03 50.51-11.66 3.29-22.3 22.5-39.41 45.72-39.41 25.59 0 46.317 20.787 46.22 46.4 11.07.96 21.85 5.77 30.17 14.39 17.193 17.814 17.756 45.559 2.021 64.024-1.871 2.196-4.646 3.416-7.53 3.416h-30.901l-80-.001-343.319-.004c-2.885 0-5.659-1.22-7.53-3.416-15.735-18.465-15.173-46.211 2.021-64.024 8.32-8.62 19.1-13.43 30.17-14.39-.097-25.612 20.63-46.4 46.22-46.4 23.22 0 42.43 17.11 45.72 39.41 17.11-7.37 37.71-3.19 50.51 11.66z" fill="#fff"/><circle cx="256.083" cy="204.303" fill="#fff" r="45"/><path d="m263.214 13.083c-3.915-4-10.348-4-14.263 0-11.592 11.845-35.296 38.245-55.855 74.855h125.973c-20.558-36.61-44.262-63.01-55.855-74.855z" fill="#ff7e98"/><path d="m165.468 310.672c4.894 21.264 11.384 39.213 18.722 54.326 1.679 3.458 5.17 5.664 9.015 5.664h125.756c3.844 0 7.336-2.206 9.015-5.664 7.337-15.113 13.828-33.062 18.722-54.326z" fill="#fff6bd"/></g><g><path d="m495.898 427.698c-7.661-7.937-17.384-13.466-27.983-16.02-1.754-11.794-7.199-22.678-15.771-31.283-10.626-10.667-24.771-16.542-39.83-16.542-23.764 0-44.753 15.205-52.762 36.811-12.201-2.403-24.739-.474-35.556 5.308-2.043-9.101-5.548-17.656-10.369-25.309h5.334c7.61 0 14.68-4.435 18.011-11.296 4.383-9.028 8.271-18.605 11.67-28.704h49.961c5.464 0 10.757-2.272 14.522-6.234 3.743-3.939 5.732-9.302 5.455-14.723-2.15-41.565-16.314-81.264-40.964-114.813-3.885-5.275-7.769-10.562-11.648-15.842l-2.237-3.044c-4.845-34.914-17.164-69.94-36.811-104.518-20.757-36.531-44.344-62.921-56.557-75.401-3.79-3.873-8.861-6.005-14.278-6.005s-10.488 2.133-14.279 6.006c-12.212 12.479-35.799 38.868-56.557 75.4-19.648 34.579-31.967 69.604-36.811 104.518l-2.608 3.549c-3.756 5.113-7.517 10.23-11.284 15.346-24.645 33.542-38.807 73.24-40.958 114.812-.276 5.413 1.712 10.776 5.456 14.715 3.765 3.962 9.057 6.234 14.521 6.234h49.961c3.399 10.098 7.287 19.675 11.67 28.703 3.331 6.863 10.401 11.297 18.011 11.297h5.334c-4.82 7.652-8.326 16.206-10.369 25.305-10.817-5.783-23.355-7.712-35.557-5.308-8.009-21.607-28.998-36.812-52.761-36.812-15.059 0-29.204 5.875-39.83 16.541-8.573 8.605-14.018 19.49-15.772 31.285-10.599 2.554-20.321 8.083-27.983 16.02-20.722 21.47-21.77 54.768-2.437 77.454 3.753 4.404 9.272 6.93 15.142 6.93l343.319.004c5.522 0 10-4.477 10-10s-4.478-10-10-10l-343.326-.01c-12.534-14.812-11.816-36.494 1.692-50.489 6.321-6.548 14.788-10.587 23.84-11.373 5.183-.45 9.155-4.798 9.136-10-.037-9.705 3.713-18.834 10.558-25.705 6.846-6.872 15.959-10.656 25.662-10.656 17.829 0 33.231 13.271 35.827 30.87.454 3.073 2.309 5.761 5.022 7.274 2.712 1.513 5.975 1.68 8.827.451 13.616-5.866 29.281-2.247 38.979 9.004 1.879 2.183 4.696 3.467 7.575 3.476h120c2.879-.004 5.692-1.293 7.574-3.471 9.699-11.251 25.362-14.871 38.979-9.004 2.851 1.228 6.114 1.061 8.827-.451 2.713-1.513 4.568-4.201 5.021-7.274 2.597-17.599 17.999-30.87 35.828-30.87 9.702 0 18.815 3.785 25.661 10.656 6.846 6.872 10.596 16.001 10.559 25.706-.02 5.202 3.953 9.551 9.136 10 9.052.785 17.519 4.824 23.839 11.373 13.51 13.997 14.227 35.682 1.688 50.495 0 0 0 0-.001 0h-.001-30.901c-5.522 0-10 4.478-10 10s4.477 10 10 10h30.901c5.87 0 11.389-2.526 15.142-6.93 19.331-22.688 18.283-55.986-2.439-77.456zm-97.296-107.035h-44.046c7.421-28.867 11.275-61.451 11.508-97.429 19.508 28.958 30.73 62.494 32.538 97.429zm-142.534-300.586c9.234 9.436 27.605 29.694 45.356 57.861h-90.688c17.747-28.167 36.111-48.425 45.332-57.861zm-57.005 77.861h114.037c18.073 33.562 32.983 75.333 32.983 121.816 0 29.507-2.498 56.537-7.45 80.919h-165.103c-4.949-24.378-7.447-51.41-7.447-80.919 0-46.484 14.91-88.255 32.98-121.816zm-85.503 222.801c1.811-35.007 13.035-68.551 32.541-97.506.233 35.986 4.089 68.576 11.512 97.447zm79.626 39.892c-5.927-12.208-10.885-25.548-14.877-39.958h155.544c-3.995 14.419-8.958 27.769-14.893 39.99zm13.667 54.291c2.064-13.32 8.204-25.52 17.35-34.26h63.76c9.146 8.74 15.286 20.94 17.35 34.26z"/><path d="m256.083 259.303c30.327 0 55-24.673 55-55s-24.673-55-55-55-55 24.673-55 55 24.673 55 55 55zm0-90c19.299 0 35 15.701 35 35s-15.701 35-35 35-35-15.701-35-35 15.701-35 35-35z"/><circle cx="412.312" cy="502.082" r="10"/></g></g></svg>