<svg id="Capa_1" enable-background="new 0 0 507.785 507.785" height="512" viewBox="0 0 507.785 507.785" width="512" xmlns="http://www.w3.org/2000/svg"><g><g><g><path d="m214.266 282.72-133.036-129.991-17.48 54.355c-11.112 34.554-8.02 72.109 8.595 104.38 11.907 23.127 30.168 42.374 52.636 55.481l17.4 10.15c27.933 16.294 63.76 7.416 80.852-20.035 14.827-23.814 11.098-54.735-8.967-74.34z" fill="#ffefe1"/></g></g><g><g><path d="m432.039 230.403-44.028-33.818 42.305-53.153 20.811 47.779c2.702 6.203 5.929 12.151 9.161 18.095 3.673 6.755 2.653 15.384-3.061 21.098-6.955 6.955-18.233 6.955-25.188-.001z" fill="#fe9738"/></g></g><g><g><path d="m66.059 416.954c13.365 17.877 34.606 28.938 57.766 28.938h262.639l14.814-23.208c28.336-44.394 24.155-102.553-11.199-141.589-.102-.112-.206-.221-.308-.333-.479-.551-.972-1.094-1.496-1.619l-105.97-105.971c-5.695-5.694-8.738-13.333-8.511-21.419.186-6.638 2.673-13.086 7.008-18.116 11.155-12.941 30.795-13.48 42.657-1.619l12.51 12.51c-.16 1.585-.242 3.193-.242 4.82 0 26.835 22.263 48.471 49.327 47.443 24.607-.934 44.659-20.985 45.594-45.592 1.029-27.064-20.607-49.329-47.443-49.329-.884 0-1.761.029-2.633.076l-13.52-13.521c-35.383-35.382-92.955-35.382-128.338 0-17.141 17.14-26.58 39.929-26.58 64.169s9.439 47.029 26.58 64.169l72.204 71.583c8.954 8.877.792 23.95-11.535 21.304 0 0-107.629-27.265-145.319-24.841-105.257 6.771-109.565-95.284-109.565-95.284l-14.843 57.188c-.339 1.305-.628 2.631-.849 3.962-8.04 48.393 1.881 74.361 1.881 74.361l23.57 68.211" fill="#fff9f0"/></g></g><g><g><path d="m389.771 280.761c-.479-.551-.972-1.094-1.496-1.619l-105.97-105.971c-5.695-5.694-8.738-13.333-8.511-21.419.186-6.638 2.673-13.086 7.008-18.116 2.094-2.429 4.487-4.421 7.071-5.976-11.78-7.081-27.528-5.094-37.071 5.976-4.336 5.03-6.822 11.478-7.008 18.116-.227 8.086 2.817 15.725 8.511 21.419l105.97 105.971c.524.524 1.017 1.067 1.496 1.619.102.112.206.221.308.333 35.354 39.037 39.535 97.196 11.199 141.589l-14.814 23.208h30l14.814-23.208c28.336-44.394 24.155-102.553-11.199-141.589-.102-.112-.206-.221-.308-.333z" fill="#ffefe1"/></g></g><g><g><path d="m383.204 101.869c-.884 0-1.761.029-2.633.076l-13.52-13.521c-21.513-21.512-51.225-29.919-79.169-25.273 18.016 2.996 35.299 11.403 49.169 25.273l13.52 13.521c.872-.048 1.749-.076 2.633-.076 26.836 0 48.471 22.264 47.443 49.329-.762 20.05-14.216 37.072-32.484 43.195 5.279 1.762 10.97 2.622 16.891 2.397 24.608-.934 44.659-20.985 45.594-45.592 1.028-27.064-20.608-49.329-47.444-49.329z" fill="#ffefe1"/></g></g><g><g><circle cx="385.755" cy="135.932" r="7.5"/></g></g><g><g><path d="m264.931 292.984-133.037-129.991-17.48 54.355c-11.112 34.554-8.02 72.109 8.595 104.38 11.907 23.127 30.168 42.374 52.636 55.481l17.4 10.15c27.933 16.294 63.76 7.416 80.852-20.035 14.828-23.814 11.098-54.735-8.966-74.34z" fill="#fff9f0"/></g></g><g><path d="m225.382 104.724c3.327 2.467 8.023 1.769 10.492-1.559 2.457-3.314 5.196-6.489 8.143-9.436 32.459-32.458 85.272-32.458 117.731 0l13.521 13.521c1.507 1.507 3.576 2.297 5.714 2.186.796-.043 1.523-.065 2.222-.065 10.966 0 21.196 4.353 28.804 12.255 7.604 7.898 11.562 18.3 11.144 29.288-.788 20.736-17.648 37.596-38.384 38.383-10.996.415-21.39-3.541-29.287-11.145-7.903-7.608-12.255-17.837-12.255-28.804 0-1.353.069-2.722.205-4.068.226-2.24-.567-4.463-2.159-6.055l-12.51-12.51c-7.163-7.163-17.087-11.054-27.242-10.681-10.288.38-19.663 4.893-26.398 12.706-5.456 6.329-8.59 14.427-8.825 22.803-.285 10.18 3.517 19.745 10.706 26.933l105.97 105.971c.343.343.704.734 1.135 1.232.038.043.075.085.113.127l.299.324c12.775 14.106 21.607 31.454 25.541 50.169.743 3.533 3.859 5.958 7.332 5.958.511 0 1.031-.053 1.551-.162 4.053-.852 6.649-4.829 5.796-8.882-4.48-21.314-14.544-41.078-29.11-57.162l-.269-.291c-.638-.731-1.207-1.344-1.783-1.92l-105.97-105.971c-4.243-4.242-6.486-9.891-6.318-15.905.139-4.937 1.983-9.706 5.192-13.429 3.981-4.618 9.518-7.285 15.591-7.51 6.085-.223 11.795 2.012 16.081 6.297l10.105 10.105c-.022.642-.034 1.283-.034 1.922 0 15.081 5.984 29.148 16.851 39.61 10.862 10.458 25.16 15.893 40.26 15.328.12-.004.237-.017.357-.022l41.42 31.815c4.885 4.688 11.2 7.03 17.518 7.029 6.48 0 12.963-2.467 17.897-7.401 7.876-7.876 9.664-20.206 4.347-29.984-3.084-5.671-6.272-11.535-8.874-17.507l-20.402-46.84c-1.625-11.293-6.698-21.753-14.786-30.154-10.37-10.771-24.281-16.747-39.212-16.851l-11.249-11.249c-38.306-38.306-100.637-38.307-138.945.001-3.466 3.467-6.691 7.205-9.586 11.109-2.466 3.327-1.768 8.024 1.56 10.491zm228.317 108.164c2.164 3.981 1.435 9.002-1.775 12.212-4.021 4.021-10.561 4.02-14.582 0-.23-.231-.476-.446-.735-.645l-31.937-24.531c13.147-5.628 23.704-16.25 29.249-29.44l10.332 23.72c2.863 6.573 6.21 12.73 9.448 18.684z"/><path d="m48.577 399.779c1.073 3.104 3.979 5.053 7.088 5.053.813 0 1.639-.133 2.45-.413 3.915-1.353 5.992-5.623 4.64-9.538l-24.98-72.293c-.026-.076-.054-.152-.083-.228-.092-.241-9.107-24.599-1.488-70.454.175-1.052.414-2.165.71-3.308l6.833-26.328c.802 2.336 1.698 4.733 2.7 7.169 11.276 27.407 30.727 46.835 56.312 56.302 2.559 13.552 7.091 26.812 13.582 39.42 12.582 24.438 31.782 44.676 55.525 58.526l17.4 10.151c10.41 6.072 22.028 9.184 33.803 9.184 5.425 0 10.883-.66 16.271-1.996 17.086-4.234 31.62-14.795 40.924-29.738 8.071-12.963 11.509-28.451 9.68-43.61-.551-4.564-1.58-9.041-3.037-13.365 6.586 1.585 10.573 2.593 10.633 2.608.088.022.178.043.267.063 1.444.31 2.887.46 4.311.46 7.269 0 14.017-3.922 17.606-10.553 4.294-7.929 2.876-17.522-3.527-23.871l-72.181-71.56c-15.724-15.723-24.383-36.629-24.383-58.866 0-8.53 1.271-16.924 3.78-24.948 1.235-3.953-.968-8.16-4.921-9.396-3.953-1.231-8.16.968-9.396 4.921-2.961 9.474-4.462 19.373-4.462 29.422 0 26.244 10.22 50.916 28.799 69.495l72.204 71.583c2.459 2.438 1.447 5.062.897 6.076-.543 1.003-2.155 3.248-5.471 2.591-1.278-.322-10.08-2.529-22.746-5.47-.105-.024-.21-.037-.315-.056-2.323-3.28-4.935-6.365-7.83-9.194l-133.036-129.989c-1.859-1.816-4.523-2.542-7.046-1.916-2.521.625-4.541 2.51-5.335 4.984l-5.891 18.318-32.392-31.651c-1.858-1.815-4.523-2.542-7.045-1.916-2.522.625-4.541 2.51-5.336 4.983l-17.481 54.355c-.435 1.353-.843 2.716-1.238 4.083-2.959-11.327-3.376-19.554-3.381-19.661-.157-3.711-3.007-6.749-6.701-7.142s-7.119 1.978-8.052 5.574l-14.843 57.19c-.408 1.573-.74 3.126-.988 4.615-8.061 48.515 1.319 75.676 2.219 78.122zm86.746-222.95 124.366 121.52c13.107 12.806 18.211 31.469 14.445 48.728l-51.665-43.246c-3.176-2.659-7.906-2.239-10.565.937s-2.239 7.906.937 10.565l55.581 46.524c-.29.504-.582 1.007-.891 1.504-2.067 3.32-4.477 6.351-7.16 9.08l-94.7-77.044c-3.213-2.615-7.937-2.129-10.551 1.085-2.614 3.213-2.128 7.937 1.085 10.551l91.808 74.691c-3.836 2.067-7.95 3.671-12.28 4.745-13.275 3.29-27.094 1.306-38.908-5.585l-17.4-10.151c-21.272-12.408-38.474-30.541-49.747-52.436-15.817-30.721-18.702-65.756-8.123-98.651zm-64.434 32.551 13.77-42.815 29.073 28.408-6.457 20.079c-5.641 17.542-7.844 35.628-6.689 53.474-14.843-7.2-26.598-18.618-35.116-34.072.042-.205.078-.412.103-.623.973-8.281 2.762-16.508 5.316-24.451z"/><path d="m500.285 438.392h-100.137l7.451-11.673c12.024-18.838 18.842-40.578 19.714-62.868.162-4.139-3.062-7.625-7.201-7.788-4.138-.16-7.626 3.061-7.788 7.201-.769 19.635-6.775 38.787-17.37 55.385l-12.602 19.744h-261.446c-.295-.053-.593-.095-.9-.113-16.997-.999-33.232-8.89-44.544-21.647-2.748-3.1-7.487-3.384-10.587-.636s-3.384 7.488-.636 10.587c3.937 4.44 8.372 8.382 13.162 11.809h-69.901c-4.142 0-7.5 3.358-7.5 7.5s3.358 7.5 7.5 7.5h378.943c.005 0 .009.001.014.001s.01-.001.016-.001h113.813c4.142 0 7.5-3.358 7.5-7.5s-3.359-7.501-7.501-7.501z"/></g></g></svg>