<svg id="Capa_1" enable-background="new 0 0 512.002 512.002" height="512" viewBox="0 0 512.002 512.002" width="512" xmlns="http://www.w3.org/2000/svg"><g><g clip-rule="evenodd" fill-rule="evenodd"><g fill="#ffdcd5"><path d="m222.159 302.002v-107.876c0 11-9 19.999-20 19.999s-20-8.999-20-20c0 11-9.001 20-20 20-11 0-20-8.999-20-19.999v-37.124-10c0-11-9-19.999-20-19.999s-20 8.999-20 20v10c0-11-9-19.999-20-19.999s-20 9.005-20 19.999v29.281 3.501l-14.878 6.037c-10.192 4.135-14.035 16.854-9.217 26.74l24.095 49.441v30h160z"/><path d="m162.159 214.125c11 0 20-8.999 20-20v-27.124-10c0-11-9.001-19.999-20.001-19.999s-19.999 8.999-19.999 19.999v37.124c0 11.001 9 20 20 20z"/><path d="m182.159 194.126c0 11 8.999 20 20 20 11 0 20-8.999 20-19.999v-27.125c0-11-9-19.999-20-19.999s-20 8.999-20 20z"/></g><path d="m222.159 302.002h-160v70h160v-5z" fill="#fff"/><path d="m222.159 372.002h-160-10.001v130h180.001v-130z" fill="#ff5a58"/><path d="m289.843 185v-107.876c0 11 9 19.999 20 19.999s19.999-8.999 19.999-19.999c0 11 9.001 19.999 20.001 19.999s19.999-8.999 19.999-19.999v-37.125-10c0-11 9-19.999 20-19.999s20 8.999 20 20v10c0-11 9-19.999 20-19.999s20 9.005 20 19.999v29.281 3.5l14.878 6.037c10.192 4.135 14.035 16.854 9.217 26.74l-24.094 49.442v30z" fill="#ffdcd5"/><path d="m349.843 97.123c-11 0-20.001-8.999-20.001-19.999v-27.125-10c0-11 9.001-19.999 20-19.999 11 0 20 8.999 20 19.999v37.125c.001 11-8.999 19.999-19.999 19.999z" fill="#ffdcd5"/><path d="m329.843 77.124c0 11-8.999 19.999-19.999 19.999s-20-8.999-20-19.999v-27.125c0-11 9-19.999 20-19.999s19.999 8.999 19.999 20z" fill="#ffdcd5"/><path d="m289.843 185h160v70h-160v-5z" fill="#fff"/><path d="m289.843 255h160 10.001v247.002h-180.001v-247.002z" fill="#8481e2"/></g><g><path d="m107.159 327.002h-.007c-5.523 0-9.997 4.477-9.997 10s4.481 10 10.004 10 10-4.477 10-10-4.477-10-10-10z"/><path d="m232.159 362.002v-195.001c0-16.542-13.458-29.999-30-29.999-5.345 0-10.367 1.404-14.718 3.865-5.336-8.332-14.675-13.865-25.282-13.865-5.344 0-10.367 1.405-14.718 3.864-5.336-8.332-14.674-13.864-25.282-13.864s-19.946 5.533-25.282 13.865c-4.351-2.46-9.373-3.865-14.718-3.865-16.542 0-30 13.458-30 30v26.047l-8.638 3.505c-7.148 2.9-12.654 8.592-15.503 16.027-3.025 7.895-2.641 16.774 1.057 24.36l23.084 47.367v87.693h-.001c-5.523 0-10 4.477-10 10v130c0 5.523 4.477 10 10 10s10-4.477 10-10v-120h160.001v120c0 5.523 4.477 10 10 10s10-4.477 10-10v-130c0-5.522-4.477-9.999-10-9.999zm-30-205c5.514 0 10 4.485 10 9.999v27.125c0 5.514-4.486 9.999-10 9.999s-10-4.486-10-10v-27.124c0-5.513 4.486-9.999 10-9.999zm-40.001-10c5.514 0 10 4.486 10 10v10 27.124c0 5.514-4.486 10-10 10s-10-4.485-10-9.999v-37.125c.001-5.514 4.487-10 10-10zm-49.999-.001c0-5.514 4.486-10 10-10s10 4.486 10 10v10 37.125 5c0 5.514-4.486 10-10 10-1.383 0-2.584-.279-3.592-.674 1.872-6.446 1.536-13.273-1.016-19.562-1.326-3.269-3.168-6.177-5.392-8.67v-23.218zm-40 10c0-5.514 4.486-10 10-10s10 4.486 10 10v13.269c-4.525-.372-9.2.281-13.686 2.101l-6.314 2.562zm-25.106 61.179c-1.26-2.585-1.394-5.742-.359-8.442.598-1.56 1.837-3.633 4.347-4.651l34.951-14.183c5.111-2.074 10.953.397 13.026 5.507.996 2.455.968 5.169-.078 7.644s-2.974 4.386-5.428 5.381l-7.541 3.06c-5.118 2.077-7.583 7.909-5.507 13.026 2.077 5.117 7.909 7.582 13.026 5.507l7.541-3.06c2.049-.831 3.974-1.871 5.754-3.097 4.639 2.791 9.893 4.253 15.372 4.253 9.089 0 17.246-4.062 22.752-10.466 4.882 3.442 10.833 5.466 17.248 5.466 7.676 0 14.689-2.898 20-7.657 5.311 4.759 12.323 7.657 20 7.657 3.505 0 6.871-.604 10-1.714v69.591h-140v-20c0-1.518-.346-3.016-1.011-4.381zm25.106 93.822h140v50h-140z"/><path d="m482.927 109.939c3.697-7.586 4.082-16.465 1.057-24.36-2.849-7.435-8.354-13.126-15.502-16.027l-8.638-3.505v-26.047c0-16.542-13.458-30-30-30-5.345 0-10.367 1.404-14.718 3.865-5.337-8.332-14.675-13.865-25.283-13.865s-19.946 5.532-25.282 13.864c-4.35-2.459-9.373-3.864-14.717-3.864-10.607 0-19.946 5.533-25.282 13.865-4.352-2.461-9.374-3.865-14.719-3.865-16.542 0-30 13.458-30 29.999v195.001c-5.523 0-10 4.477-10 10v247.002c0 5.523 4.477 10 10 10s10-4.477 10-10v-197.002h44.996c5.523 0 10-4.477 10-10s-4.477-10-10-10h-44.996v-20h160.001v237.002c0 5.523 4.477 10 10 10s10-4.477 10-10v-247.002c0-5.523-4.477-10-10-10h-.001v-87.693zm-21.966-21.855c2.51 1.019 3.749 3.091 4.347 4.651 1.035 2.7.9 5.856-.359 8.442l-24.095 49.441c-.665 1.365-1.011 2.863-1.011 4.381v20h-140v-69.591c3.129 1.109 6.495 1.714 10 1.714 7.676 0 14.688-2.898 20-7.657 5.312 4.759 12.324 7.657 20 7.657 6.414 0 12.366-2.024 17.248-5.466 5.506 6.404 13.663 10.466 22.752 10.466 5.48 0 10.734-1.462 15.372-4.253 1.78 1.226 3.706 2.266 5.754 3.097l7.541 3.06c5.119 2.077 10.95-.39 13.026-5.507 2.076-5.118-.389-10.95-5.507-13.026l-7.541-3.06c-2.455-.996-4.382-2.907-5.428-5.381-1.046-2.475-1.074-5.19-.078-7.645 2.073-5.109 7.915-7.58 13.026-5.506zm-31.118-58.084c5.514 0 10 4.486 10 10v17.932l-6.314-2.562c-4.486-1.82-9.161-2.473-13.686-2.101v-13.269c0-5.514 4.486-10 10-10zm-50 0c0-5.514 4.486-10 10-10s10 4.486 10 10v10 23.219c-2.224 2.493-4.065 5.401-5.392 8.67-2.552 6.289-2.888 13.116-1.016 19.562-1.008.395-2.209.673-3.592.673-5.514 0-10-4.485-10-9.999v-5-37.125zm-29.999 0c5.514 0 10 4.486 10 10v37.125c0 5.514-4.486 9.999-10 9.999s-10-4.486-10-10v-27.124-10c-.001-5.514 4.486-10 10-10zm-50.001 19.999c0-5.514 4.486-9.999 10-9.999s10 4.486 10 10v27.124c0 5.514-4.486 10-10 10s-10-4.485-10-9.999zm0 195.001v-50h140v50z"/><path d="m404.843 210c-5.523 0-10 4.477-10 10s4.477 10 10 10h.007c5.523 0 9.997-4.477 9.997-10s-4.481-10-10.004-10z"/><path d="m379.836 285c-5.523 0-10 4.477-10 10s4.477 10 10 10h.007c5.523 0 9.997-4.477 9.997-10s-4.481-10-10.004-10z"/></g></g></svg>